<?xml version="1.0" encoding="utf-8"?>
<svg version="1.1" id="a794ddbe-9ef5-46a7-b071-4d3a65735565"
	 xmlns="http://www.w3.org/2000/svg" xmlns:xlink="http://www.w3.org/1999/xlink" x="0px" y="0px" viewBox="0 0 40.85 40.85"
	 style="enable-background:new 0 0 40.85 40.85; fill: #333;" xml:space="preserve">
<title>21</title>
<path id="_x36_e1f5dfe-856a-401d-bbe2-515f4f9c2f45" d="M20.8,23.68c-0.18,0-0.36,0.01-0.54,0.04c-0.11,0.02-0.21,0.07-0.28,0.15
	c-0.07,0.08-0.1,0.19-0.1,0.29c-0.01,0.13-0.01,0.28-0.01,0.47v0.13c0,0.19,0,0.34,0.01,0.46c0,0.22,0.17,0.4,0.38,0.42
	c0.18,0.03,0.36,0.04,0.54,0.03h3.88c0.18,0,0.36-0.01,0.54-0.03c0.22-0.02,0.39-0.2,0.38-0.42c0.01-0.12,0.01-0.27,0.01-0.46v-0.13
	c0-0.19,0-0.34-0.01-0.47c0-0.11-0.04-0.21-0.1-0.29c-0.07-0.08-0.17-0.13-0.28-0.15c-0.18-0.03-0.36-0.05-0.54-0.04h-0.85v-7.57
	c0-0.18-0.01-0.37-0.04-0.55c-0.01-0.11-0.07-0.21-0.15-0.27c-0.1-0.06-0.22-0.09-0.34-0.09c-0.14,0-0.34-0.01-0.6-0.01
	c-0.15,0-0.28,0-0.38,0.01c-0.12,0.01-0.23,0.04-0.33,0.1l-1.79,0.98c-0.15,0.08-0.3,0.18-0.43,0.29c-0.1,0.1-0.15,0.24-0.15,0.38
	c0,0.11,0.03,0.21,0.08,0.31c0.05,0.1,0.11,0.22,0.19,0.35c0.12,0.2,0.24,0.39,0.38,0.57c0.08,0.11,0.21,0.18,0.35,0.18
	c0.09,0,0.18-0.02,0.27-0.05c0.13-0.05,0.26-0.1,0.38-0.17l0.35-0.2v5.74L20.8,23.68L20.8,23.68z M29.73,26.17l-5.25,5.25
	c-0.52,0.59-1.27,0.91-2.05,0.89H15c-0.78,0.04-1.54-0.26-2.08-0.82l-5.25-5.25c-0.59-0.51-0.92-1.27-0.89-2.05v-7.42
	c-0.05-0.78,0.25-1.55,0.82-2.08l5.25-5.25c0.51-0.6,1.27-0.92,2.05-0.89h7.42c0.78-0.05,1.55,0.25,2.08,0.82l5.24,5.24
	c0.3,0.26,0.74,0.22,1-0.07c0.23-0.27,0.23-0.66,0-0.93l-5.24-5.24c-0.8-0.85-1.93-1.3-3.09-1.24h-7.43
	c-1.15-0.03-2.26,0.45-3.04,1.31l-5.24,5.24c-0.85,0.8-1.3,1.93-1.24,3.09v7.41c-0.04,1.16,0.44,2.28,1.31,3.06l5.24,5.24
	c0.78,0.83,1.88,1.28,3.02,1.24h7.51c1.15,0.03,2.26-0.45,3.04-1.31l5.24-5.24c0.28-0.28,0.28-0.72,0-1
	C30.45,25.89,30,25.89,29.73,26.17L29.73,26.17z M13.53,20.45c-0.04,0.03-0.08,0.06-0.12,0.08c-0.01,0.01-0.01,0.01,0,0.01
	c-0.26,0.14-0.5,0.32-0.71,0.53c-0.2,0.2-0.36,0.43-0.48,0.69c-0.13,0.3-0.22,0.62-0.27,0.95c-0.06,0.43-0.09,0.87-0.08,1.3v0.55
	c0,0.2,0.01,0.4,0.04,0.6c0.01,0.13,0.07,0.24,0.15,0.34c0.1,0.09,0.22,0.14,0.36,0.15c0.22,0.03,0.44,0.04,0.66,0.03h4.98
	c0.19,0.01,0.38-0.01,0.56-0.06c0.11-0.03,0.21-0.09,0.28-0.19c0.06-0.1,0.09-0.22,0.09-0.34c0-0.14,0.01-0.31,0.01-0.5
	c0-0.19,0-0.35-0.01-0.46c0-0.23-0.16-0.42-0.38-0.46c-0.18-0.04-0.36-0.05-0.54-0.05h-3.92c0-0.3,0.03-0.6,0.1-0.9
	c0.05-0.2,0.18-0.38,0.36-0.48c0.22-0.13,0.45-0.24,0.68-0.34c0.3-0.13,0.61-0.28,0.93-0.43c0.05-0.02,0.11-0.05,0.19-0.09
	c0.06-0.04,0.13-0.07,0.2-0.09c0.33-0.13,0.66-0.29,0.97-0.48c0.26-0.15,0.49-0.34,0.69-0.55c0.18-0.2,0.32-0.44,0.41-0.69
	c0.1-0.29,0.15-0.6,0.14-0.91v-0.52c0.01-0.46-0.05-0.93-0.18-1.37c-0.1-0.35-0.3-0.66-0.57-0.91c-0.29-0.25-0.65-0.42-1.02-0.5
	c-0.5-0.11-1.01-0.16-1.53-0.15c-0.25,0-0.48,0-0.69,0.01s-0.41,0.03-0.59,0.05c-0.18,0.02-0.36,0.05-0.52,0.09
	s-0.34,0.08-0.52,0.14c-0.27,0.07-0.53,0.2-0.76,0.36c-0.17,0.14-0.26,0.34-0.25,0.56c0,0.08,0.01,0.17,0.03,0.25
	c0.02,0.1,0.06,0.2,0.1,0.29l0.01,0.03l0.06,0.13c0.06,0.14,0.13,0.28,0.22,0.41c0.13,0.12,0.31,0.17,0.48,0.14
	c0.09,0,0.18-0.01,0.27-0.03c0.11-0.03,0.22-0.06,0.33-0.1l0.34-0.1c0.1-0.03,0.19-0.05,0.29-0.07c0.1-0.02,0.2-0.03,0.3-0.04
	c0.11-0.01,0.24-0.01,0.38-0.01h0.39c0.32-0.02,0.64,0.03,0.95,0.13c0.21,0.13,0.33,0.38,0.29,0.62v0.53
	c-0.01,0.17-0.11,0.32-0.25,0.4c-0.23,0.16-0.48,0.29-0.74,0.39c-0.25,0.11-0.48,0.21-0.67,0.29s-0.37,0.17-0.52,0.25
	s-0.3,0.17-0.43,0.24c-0.14,0.08-0.27,0.17-0.41,0.26l0.01-0.01C13.57,20.42,13.55,20.43,13.53,20.45L13.53,20.45z M34,19.47h-1.99
	v-1.95c0-0.44-0.36-0.8-0.8-0.8c-0.44-0.01-0.79,0.34-0.8,0.78c0,0.01,0,0.01,0,0.02v1.95h-1.99c-0.42,0-0.77,0.35-0.77,0.77
	c0,0.42,0.34,0.77,0.77,0.77c0,0,0,0,0,0h1.99v1.95c-0.01,0.44,0.34,0.79,0.78,0.8c0.01,0,0.01,0,0.02,0c0.44,0,0.8-0.36,0.8-0.8
	v-1.95H34c0.42,0,0.77-0.34,0.77-0.77c0,0,0,0,0,0C34.76,19.82,34.42,19.48,34,19.47L34,19.47z"/>
</svg>
