<?xml version="1.0" encoding="utf-8"?>
<svg version="1.1" id="dea6884b-583d-4038-ae00-2b76e382bde2"
	 xmlns="http://www.w3.org/2000/svg" xmlns:xlink="http://www.w3.org/1999/xlink" x="0px" y="0px" viewBox="0 0 40.85 40.85"
	 style="enable-background:new 0 0 40.85 40.85; fill: #333;" xml:space="preserve">
<title>align-center</title>
<path id="eb5d0260-d3fb-4210-9aa8-4f525d6fd172" d="M11.46,13.44h18.41c1.13,0,2.06-0.91,2.06-2.05c0-1.13-0.91-2.06-2.05-2.06
	c0,0-0.01,0-0.01,0H11.46c-1.13,0-2.06,0.91-2.06,2.05c0,1.13,0.91,2.06,2.05,2.06C11.45,13.44,11.45,13.44,11.46,13.44z
	 M11.46,10.75h18.41c0.35,0,0.64,0.29,0.64,0.64c0,0.35-0.29,0.63-0.64,0.64H11.46c-0.35,0-0.64-0.29-0.64-0.64
	C10.82,11.03,11.1,10.75,11.46,10.75L11.46,10.75z M28.04,27.41H13.16c-1.13,0-2.06,0.91-2.06,2.05c0,1.13,0.91,2.06,2.05,2.06
	c0,0,0.01,0,0.01,0h14.88c1.13,0,2.05-0.92,2.05-2.05C30.09,28.33,29.17,27.41,28.04,27.41L28.04,27.41z M28.04,30.1H13.16
	c-0.35,0-0.64-0.29-0.64-0.64s0.29-0.64,0.64-0.64h14.88c0.35,0,0.64,0.29,0.64,0.64C28.67,29.81,28.39,30.1,28.04,30.1L28.04,30.1z
	 M14.29,15.36c-1.13,0-2.06,0.91-2.06,2.05c0,1.13,0.91,2.06,2.05,2.06c0,0,0.01,0,0.01,0h12.74c1.13,0,2.06-0.91,2.06-2.05
	c0-1.13-0.91-2.06-2.05-2.06c0,0-0.01,0-0.01,0H14.29L14.29,15.36z M27.67,17.41c0,0.35-0.29,0.63-0.64,0.64H14.29
	c-0.35,0-0.64-0.29-0.64-0.64s0.29-0.64,0.64-0.64h12.74C27.38,16.77,27.67,17.06,27.67,17.41z M30.53,21.38H10.32
	c-1.13,0-2.06,0.91-2.06,2.05c0,1.13,0.91,2.06,2.05,2.06c0,0,0.01,0,0.01,0h20.21c1.13,0.01,2.06-0.91,2.06-2.05
	c0.01-1.13-0.91-2.06-2.05-2.06C30.54,21.38,30.53,21.38,30.53,21.38L30.53,21.38z M30.53,24.08H10.32c-0.35,0-0.63-0.29-0.64-0.64
	c0-0.35,0.29-0.64,0.64-0.64h20.21c0.35,0,0.64,0.29,0.64,0.64C31.16,23.79,30.88,24.07,30.53,24.08L30.53,24.08z"/>
</svg>
