<?xml version="1.0" encoding="utf-8"?>
<svg version="1.1" id="ab311ec1-3bd7-4919-a4be-fdbd9219e905"
	 xmlns="http://www.w3.org/2000/svg" xmlns:xlink="http://www.w3.org/1999/xlink" x="0px" y="0px" viewBox="0 0 40.85 40.85"
	 style="enable-background:new 0 0 40.85 40.85; fill: #333;" xml:space="preserve">
<title>align-left</title>
<path id="d2e26ed4-fc72-46a5-bedf-ffe069de8386" d="M28.93,27.41H10.09c-1.13,0-2.06,0.91-2.06,2.05c0,1.13,0.91,2.06,2.05,2.06
	c0,0,0.01,0,0.01,0h18.85c1.13,0,2.06-0.91,2.06-2.05c0-1.13-0.91-2.06-2.05-2.06C28.94,27.41,28.94,27.41,28.93,27.41z M28.93,30.1
	H10.09c-0.35,0-0.64-0.29-0.64-0.64s0.29-0.64,0.64-0.64h18.85c0.35,0,0.64,0.29,0.64,0.64C29.57,29.81,29.28,30.1,28.93,30.1
	L28.93,30.1z M10.09,25.49h15.1c1.13,0,2.06-0.91,2.06-2.05c0-1.13-0.91-2.06-2.05-2.06c0,0-0.01,0-0.01,0h-15.1
	c-1.14,0-2.06,0.92-2.06,2.06C8.03,24.57,8.95,25.49,10.09,25.49L10.09,25.49z M10.09,22.8h15.1c0.35,0,0.64,0.29,0.64,0.64
	c0,0.35-0.29,0.63-0.64,0.64h-15.1c-0.35,0-0.63-0.29-0.64-0.64C9.45,23.09,9.73,22.8,10.09,22.8L10.09,22.8z M30.76,9.33H10.09
	c-1.13,0-2.06,0.91-2.06,2.05c0,1.13,0.91,2.06,2.05,2.06c0,0,0.01,0,0.01,0h20.68c1.13,0,2.06-0.91,2.06-2.05
	c0-1.13-0.91-2.06-2.05-2.06C30.77,9.33,30.77,9.33,30.76,9.33z M30.76,12.02H10.09c-0.35,0-0.64-0.29-0.64-0.64
	s0.29-0.64,0.64-0.64h20.68c0.35,0,0.64,0.29,0.64,0.64C31.4,11.73,31.11,12.02,30.76,12.02z M10.09,19.47h17.84
	c1.13,0,2.06-0.91,2.06-2.05c0-1.13-0.91-2.06-2.05-2.06c0,0-0.01,0-0.01,0H10.09c-1.13,0-2.06,0.91-2.06,2.05
	c0,1.13,0.91,2.06,2.05,2.06C10.08,19.47,10.08,19.47,10.09,19.47z M10.09,16.77h17.84c0.35,0,0.64,0.29,0.64,0.64
	c0,0.35-0.29,0.63-0.64,0.64H10.09c-0.35,0-0.64-0.29-0.64-0.64S9.73,16.77,10.09,16.77z"/>
</svg>
