<?xml version="1.0" encoding="utf-8"?>
<svg version="1.1" id="eb475a53-9dad-4120-8a26-3be811ec9ebe"
	 xmlns="http://www.w3.org/2000/svg" xmlns:xlink="http://www.w3.org/1999/xlink" x="0px" y="0px" viewBox="0 0 40.85 40.85"
	 style="enable-background:new 0 0 40.85 40.85; fill: #333;" xml:space="preserve">
<title>align-right</title>
<path id="_x38_694ed80-0459-49f3-b77f-46efa08f6771" d="M30.76,13.44c1.13,0,2.06-0.91,2.06-2.05c0-1.13-0.91-2.06-2.05-2.06
	c0,0-0.01,0-0.01,0H10.09c-1.13,0-2.06,0.91-2.06,2.05c0,1.13,0.91,2.06,2.05,2.06c0,0,0.01,0,0.01,0H30.76L30.76,13.44z
	 M9.45,11.38c0-0.35,0.29-0.64,0.64-0.64h20.67c0.35,0,0.64,0.29,0.64,0.64c0,0.35-0.29,0.63-0.64,0.64H10.09
	C9.74,12.02,9.45,11.73,9.45,11.38L9.45,11.38z M30.76,27.41H11.92c-1.13,0-2.05,0.93-2.05,2.06c0,1.13,0.92,2.05,2.05,2.05h18.85
	c1.13,0,2.05-0.92,2.05-2.06S31.9,27.41,30.76,27.41L30.76,27.41z M30.76,30.1H11.92c-0.35,0-0.63-0.29-0.64-0.64
	c0-0.35,0.29-0.64,0.64-0.64h18.85c0.35,0,0.64,0.29,0.64,0.64C31.4,29.82,31.11,30.1,30.76,30.1L30.76,30.1z M30.76,21.38h-15.1
	c-1.13,0-2.06,0.91-2.06,2.05c0,1.13,0.91,2.06,2.05,2.06c0,0,0.01,0,0.01,0h15.1c1.13,0,2.06-0.91,2.06-2.05
	c0-1.13-0.91-2.06-2.05-2.06C30.77,21.38,30.77,21.38,30.76,21.38z M30.76,24.08h-15.1c-0.35,0-0.63-0.29-0.64-0.64
	c0-0.35,0.29-0.64,0.64-0.64h15.1c0.35,0,0.64,0.29,0.64,0.64C31.4,23.79,31.11,24.07,30.76,24.08L30.76,24.08z M30.76,15.36H12.92
	c-1.13,0-2.06,0.91-2.06,2.05c0,1.13,0.91,2.06,2.05,2.06c0,0,0.01,0,0.01,0h17.84c1.13,0.03,2.08-0.87,2.1-2.01
	s-0.87-2.08-2.01-2.1C30.82,15.36,30.79,15.36,30.76,15.36L30.76,15.36z M30.76,18.05H12.92c-0.35,0-0.63-0.29-0.64-0.64
	c0-0.35,0.29-0.64,0.64-0.64h17.84c0.35,0,0.64,0.29,0.64,0.64C31.4,17.76,31.11,18.04,30.76,18.05L30.76,18.05z"/>
</svg>
