<?xml version="1.0" encoding="utf-8"?>
<svg version="1.1" id="b0da30ff-108b-48f4-84a4-db942c180179"
	 xmlns="http://www.w3.org/2000/svg" xmlns:xlink="http://www.w3.org/1999/xlink" x="0px" y="0px" viewBox="0 0 40.85 40.85"
	 style="enable-background:new 0 0 40.85 40.85; fill: #333;" xml:space="preserve">
<title>align-bottom</title>
<path id="_x32_c51cfd3-2ae9-491c-8815-223aab421940" d="M11.39,19.3c-1.13,0-2.05,0.92-2.06,2.05v9.18c0,1.14,0.92,2.06,2.06,2.06
	c1.14,0,2.06-0.92,2.06-2.06l0,0v-9.18C13.44,20.22,12.52,19.3,11.39,19.3z M12.03,30.53c0,0.35-0.29,0.63-0.64,0.64
	c-0.35,0-0.64-0.29-0.64-0.64v-9.18c0-0.35,0.29-0.64,0.64-0.64c0.35,0,0.63,0.29,0.64,0.64V30.53z M29.47,16.93
	c-1.13,0-2.05,0.92-2.06,2.06v11.55c0,1.13,0.92,2.05,2.06,2.05s2.06-0.92,2.06-2.05V18.98C31.52,17.84,30.6,16.92,29.47,16.93
	L29.47,16.93z M30.11,30.53c0,0.35-0.29,0.63-0.64,0.64c-0.35,0-0.64-0.29-0.64-0.64V18.98c0-0.35,0.29-0.64,0.64-0.64
	c0.35,0,0.63,0.29,0.64,0.64V30.53L30.11,30.53z M17.41,12.93c-1.13,0-2.05,0.92-2.06,2.05v15.55c0,1.13,0.92,2.05,2.06,2.05
	s2.06-0.92,2.06-2.05l0,0V14.98C19.47,13.85,18.55,12.92,17.41,12.93C17.41,12.92,17.41,12.92,17.41,12.93L17.41,12.93z
	 M18.05,30.53c0,0.35-0.29,0.63-0.64,0.64c-0.35,0-0.64-0.29-0.64-0.64V14.98c0-0.35,0.29-0.64,0.64-0.64
	c0.35,0,0.63,0.29,0.64,0.64V30.53z M23.44,8.27c-1.13,0-2.05,0.92-2.06,2.05v20.21c0,1.13,0.92,2.05,2.06,2.05s2.06-0.92,2.06-2.05
	V10.32C25.49,9.19,24.57,8.27,23.44,8.27L23.44,8.27z M24.08,30.53c0,0.35-0.29,0.63-0.64,0.64c-0.35,0-0.64-0.29-0.64-0.64V10.32
	c0-0.35,0.29-0.64,0.64-0.64c0.35,0,0.63,0.29,0.64,0.64V30.53L24.08,30.53z"/>
</svg>
