<?xml version="1.0" encoding="utf-8"?>
<svg version="1.1" id="cdee23b8-19c0-4289-aae9-9f4a35c7ed90"
	 xmlns="http://www.w3.org/2000/svg" xmlns:xlink="http://www.w3.org/1999/xlink" x="0px" y="0px" viewBox="0 0 40.85 40.85"
	 style="enable-background:new 0 0 40.85 40.85; fill: #333;" xml:space="preserve">
<title>align-top</title>
<path id="_x36_07c994a-023a-470c-942a-8d7db5df4059" d="M11.38,8.27c-1.13,0-2.05,0.92-2.05,2.05v11.55c0,1.13,0.92,2.05,2.05,2.05
	c1.13,0,2.06-0.92,2.06-2.05V10.32C13.44,9.19,12.52,8.27,11.38,8.27z M12.02,21.87c0,0.35-0.29,0.64-0.64,0.64
	c-0.35,0-0.63-0.29-0.64-0.64V10.32c0-0.35,0.29-0.63,0.64-0.64c0.35,0,0.64,0.29,0.64,0.64V21.87L12.02,21.87z M29.46,8.27
	c-1.13,0-2.05,0.92-2.05,2.05v9.18c0,1.13,0.92,2.05,2.05,2.05c1.13,0,2.06-0.92,2.06-2.05v-9.17C31.52,9.19,30.6,8.27,29.46,8.27
	C29.46,8.27,29.46,8.27,29.46,8.27L29.46,8.27z M30.1,19.5c0,0.35-0.29,0.64-0.64,0.64c-0.35,0-0.63-0.29-0.64-0.64v-9.17
	c0-0.35,0.29-0.63,0.64-0.64c0.35,0,0.64,0.29,0.64,0.64V19.5L30.1,19.5z M17.41,8.27c-1.13,0-2.05,0.92-2.05,2.05v20.21
	c0,1.13,0.92,2.05,2.06,2.05c1.13,0,2.05-0.92,2.05-2.05V10.32C19.46,9.19,18.55,8.27,17.41,8.27z M18.05,30.53
	c0,0.35-0.29,0.64-0.64,0.64c-0.35,0-0.63-0.29-0.64-0.64V10.32c0-0.35,0.29-0.63,0.64-0.64c0.35,0,0.64,0.29,0.64,0.64V30.53
	L18.05,30.53z M23.44,8.27c-1.13,0-2.05,0.92-2.05,2.05v15.55c0,1.14,0.92,2.06,2.06,2.06s2.06-0.92,2.06-2.06l0,0V10.32
	C25.49,9.19,24.57,8.27,23.44,8.27L23.44,8.27z M24.08,25.87c0,0.35-0.29,0.64-0.64,0.64c-0.35,0-0.63-0.29-0.64-0.64V10.32
	c0-0.35,0.29-0.63,0.64-0.64c0.35,0,0.64,0.29,0.64,0.64V25.87z"/>
</svg>
