<?xml version="1.0" encoding="utf-8"?>
<svg version="1.1" id="_x35_150be2a-d57f-449a-afea-627f5c8ae44c"
	 xmlns="http://www.w3.org/2000/svg" xmlns:xlink="http://www.w3.org/1999/xlink" x="0px" y="0px" viewBox="0 0 40.85 40.85"
	 style="enable-background:new 0 0 40.85 40.85; fill: #333;" xml:space="preserve">
<title>avatar-zombie</title>
<path id="a5aa3fa2-519b-4109-ab58-df71fb530f85" d="M18.57,25.29c-0.34,0.19-0.46,0.63-0.26,0.97c0,0,0,0,0,0
	c0.67,1.17,2.16,1.58,3.33,0.91c0.39-0.22,0.71-0.54,0.92-0.93c0.19-0.34,0.07-0.77-0.27-0.96c-0.34-0.19-0.77-0.07-0.96,0.27l0,0
	c-0.32,0.49-0.98,0.63-1.47,0.31c-0.12-0.08-0.23-0.18-0.31-0.3C19.34,25.22,18.91,25.1,18.57,25.29
	C18.57,25.29,18.57,25.29,18.57,25.29z M28.12,21.62c0-1.75-1.41-3.16-3.16-3.16s-3.16,1.41-3.16,3.16l0,0
	c0,0.72,0.26,1.42,0.71,1.98c0.01,0.02,0.01,0.04,0.02,0.05c0.96,1.47,2.6,2.36,4.35,2.38h0.12c0.39-0.02,0.69-0.35,0.67-0.74
	c-0.02-0.37-0.32-0.67-0.69-0.68h-0.02c-0.28,0.01-0.55-0.02-0.82-0.07C27.35,24.05,28.12,22.9,28.12,21.62L28.12,21.62z
	 M24.96,23.36c-0.96,0-1.74-0.78-1.74-1.74s0.78-1.74,1.74-1.74c0.96,0,1.74,0.78,1.74,1.74C26.7,22.58,25.92,23.36,24.96,23.36
	C24.96,23.36,24.96,23.36,24.96,23.36L24.96,23.36z M22.09,18.28c0.23,0,0.45-0.11,0.59-0.31c0.57-0.83,2.44-0.8,3.06-0.53
	c0.36,0.16,0.78-0.01,0.93-0.37c0.16-0.36-0.01-0.78-0.36-0.93l0,0c-1.07-0.47-3.73-0.53-4.8,1.03c-0.22,0.32-0.14,0.76,0.18,0.99
	C21.8,18.24,21.94,18.28,22.09,18.28L22.09,18.28z M8.31,19.91c-0.04-0.93,0.36-1.82,1.08-2.42c0.31-0.24,0.38-0.68,0.14-0.99
	c-0.23-0.31-0.66-0.37-0.97-0.16c-1.09,0.86-1.71,2.18-1.66,3.56c-0.04,1.4,0.59,2.73,1.69,3.59c0.33,0.21,0.77,0.12,0.98-0.21
	c0.2-0.31,0.13-0.72-0.16-0.95C8.67,21.75,8.26,20.85,8.31,19.91L8.31,19.91z M15,16.26c0.62-0.27,2.49-0.3,3.06,0.53
	c0.23,0.32,0.67,0.39,0.99,0.16c0.3-0.22,0.38-0.64,0.18-0.96c-1.07-1.56-3.73-1.5-4.8-1.03c-0.36,0.16-0.52,0.57-0.36,0.93
	S14.64,16.42,15,16.26L15,16.26L15,16.26z M20.04,4.63c-8.06,0.13-9.75,3.69-9.75,6.64v14.81c0.06,5.6,4.64,10.09,10.24,10.04
	c5.52-0.05,9.98-4.52,10.04-10.04V11.19c0.05-1.55-0.54-3.05-1.63-4.15C27.23,5.37,24.24,4.56,20.04,4.63L20.04,4.63z M29.15,11.79
	v14.29c0,4.82-3.9,8.72-8.72,8.72s-8.72-3.9-8.72-8.72V12.26c0.53-0.19,1.11-0.23,1.66-0.11c-0.02,0.42-0.02,0.72-0.02,0.75
	c0,0.39,0.32,0.71,0.71,0.71c0.39,0,0.71-0.32,0.71-0.71c0-0.14,0.01-0.35,0.02-0.6c0.31,0.03,0.65,0.06,1.02,0.09
	c0.01,0.4,0.04,0.68,0.04,0.71c0.03,0.36,0.33,0.65,0.7,0.65c0.02,0,0.04,0,0.06,0c0.39-0.03,0.68-0.37,0.65-0.76c0,0,0,0,0,0
	c-0.01-0.12-0.02-0.3-0.03-0.52c0.32,0.01,0.65,0.02,1.01,0.02c1.08,0,2.34-0.05,3.81-0.18c1.17-0.12,2.34-0.35,3.47-0.68
	c0.26-0.07,0.49-0.13,0.7-0.18c0.02,0.28,0.04,0.52,0.04,0.67c0.01,0.38,0.33,0.69,0.71,0.69h0.02c0.39-0.01,0.7-0.34,0.69-0.73
	c0-0.03-0.01-0.32-0.04-0.74c0.53,0.08,1.03,0.24,1.5,0.5L29.15,11.79z M27.72,9.89c-0.09-0.01-0.18-0.01-0.28-0.02
	c-0.06-0.34-0.15-0.68-0.27-1.01c-0.13-0.37-0.53-0.56-0.9-0.43s-0.56,0.53-0.43,0.9c0,0.01,0.01,0.03,0.02,0.04
	c0.08,0.21,0.14,0.42,0.18,0.64c-0.28,0.07-0.57,0.14-0.88,0.23c-1.05,0.31-2.13,0.53-3.22,0.64c-1.55,0.15-3.12,0.2-4.68,0.16
	c0.02-0.27,0.06-0.55,0.12-0.82c0.11-0.37-0.1-0.77-0.47-0.88c-0.37-0.11-0.77,0.1-0.88,0.47C16,9.83,15.99,9.85,15.99,9.87
	c-0.09,0.36-0.14,0.73-0.16,1.1c-0.32-0.02-0.62-0.05-0.9-0.08c0.04-0.24,0.1-0.49,0.17-0.72c0.13-0.37-0.06-0.77-0.43-0.9
	c-0.37-0.13-0.77,0.06-0.9,0.43l0,0c-0.11,0.34-0.2,0.69-0.25,1.04c-0.59-0.08-1.19-0.07-1.79,0.02c0.27-3.08,3-4.62,8.33-4.71
	c3.79-0.07,6.46,0.61,7.88,2c0.6,0.59,0.99,1.35,1.13,2.18C28.63,10.07,28.18,9.96,27.72,9.89L27.72,9.89z M32.31,18.02
	c-0.32-0.23-0.76-0.16-0.99,0.16s-0.16,0.76,0.16,0.99c1.33,1.2,1.44,3.25,0.24,4.59c-0.08,0.09-0.17,0.18-0.26,0.26
	c-0.31,0.24-0.37,0.68-0.13,0.99c0.23,0.29,0.64,0.37,0.95,0.16c1.98-1.63,2.27-4.56,0.64-6.54C32.73,18.4,32.52,18.2,32.31,18.02
	L32.31,18.02z M25.29,30.04l-0.1-0.05c-0.7-0.42-1.5-0.62-2.32-0.56c-0.54,0.02-1.07,0.19-1.52,0.5c-0.57,0.35-1.28,0.35-1.84,0
	c-0.45-0.31-0.98-0.48-1.52-0.5c-0.81-0.06-1.62,0.14-2.32,0.56l-0.1,0.05c-0.34,0.2-0.46,0.63-0.26,0.97
	c0.19,0.32,0.59,0.45,0.93,0.28l0.11-0.06c0.46-0.3,1-0.44,1.55-0.39c0.31,0,0.61,0.1,0.86,0.29c0.49,0.34,1.08,0.51,1.67,0.48h0.01
	c0.6,0.03,1.18-0.14,1.67-0.48c0.25-0.18,0.55-0.28,0.86-0.29c0.54-0.04,1.09,0.1,1.55,0.39l0.11,0.06c0.34,0.2,0.77,0.09,0.97-0.25
	c0.2-0.34,0.09-0.77-0.25-0.97C25.33,30.06,25.31,30.05,25.29,30.04z M18.61,23.65c0.01-0.01,0.01-0.02,0.02-0.03
	c0.47-0.56,0.73-1.27,0.73-2c0-1.75-1.41-3.16-3.16-3.16c-1.75,0-3.16,1.41-3.16,3.16c0,1.28,0.77,2.43,1.95,2.92
	c-0.24,0.05-0.48,0.08-0.73,0.08c-0.04,0-0.07,0-0.11,0c-0.39,0.01-0.7,0.33-0.69,0.73c0.01,0.37,0.3,0.67,0.68,0.69h0.12
	C16.01,26.01,17.64,25.12,18.61,23.65L18.61,23.65z M16.19,23.36c-0.96,0-1.74-0.78-1.74-1.74s0.78-1.74,1.74-1.74
	c0.96,0,1.74,0.78,1.74,1.74C17.93,22.58,17.15,23.36,16.19,23.36L16.19,23.36z"/>
</svg>
