<?xml version="1.0" encoding="utf-8"?>
<svg version="1.1" id="_x36_5c2fb0d-ff41-4d45-8a62-ad9932e82191"
	 xmlns="http://www.w3.org/2000/svg" xmlns:xlink="http://www.w3.org/1999/xlink" x="0px" y="0px" viewBox="0 0 40.85 40.85"
	 style="enable-background:new 0 0 40.85 40.85; fill: #333;" xml:space="preserve">
<title>bag-refrigerator</title>
<path id="bd22f975-d2f7-4487-9a17-da53d01c6248" d="M33.44,9.44L16.35,7.81c-1.5-0.17-3.01,0.04-4.4,0.61l-5.41,3.09
	c-1.33,0.71-2.15,2.11-2.11,3.62V26.7c0,2.87,1.4,4.59,3.94,4.85l16.15,1.5c0.29,0.03,0.61,0.04,0.94,0.04
	c1.19,0.05,2.37-0.17,3.46-0.65l4.3-2.46l0.17-0.1c1.59-0.72,2.63-2.29,2.67-4.04c0-2,0.1-4.12,0.19-6.17
	c0.09-2.07,0.19-4.2,0.19-6.24C36.43,11.51,36.07,9.69,33.44,9.44z M34.83,19.61c-0.09,2.07-0.19,4.2-0.19,6.24
	c-0.04,1.25-0.82,2.35-1.97,2.81l-4.45,2.55c-1.14,0.42-2.36,0.56-3.57,0.43l-16.15-1.5c-0.66-0.07-2.66-0.27-2.66-3.43V15.13
	c-0.04-1.01,0.52-1.96,1.43-2.41l5.39-3.08c0.87-0.34,1.81-0.5,2.74-0.46c0.28,0,0.55,0.01,0.83,0.04l17.09,1.63
	c1.26,0.12,1.7,0.53,1.7,2.58C35.01,15.44,34.92,17.56,34.83,19.61L34.83,19.61z M17.31,20.13c-0.39,0-0.71,0.32-0.71,0.71
	c0,0,0,0,0,0v1.15c0.01,0.51-0.39,0.94-0.9,0.95c-0.05,0-0.09,0-0.14-0.01c-0.65-0.08-1.15-0.62-1.17-1.27v-1.15
	c0-0.39-0.32-0.71-0.71-0.71c-0.39,0-0.71,0.32-0.71,0.71l0,0v1.15c0.03,1.39,1.08,2.54,2.46,2.68c0.08,0.01,0.15,0.01,0.23,0.01
	c1.29,0.01,2.35-1.03,2.36-2.33c0-0.01,0-0.03,0-0.04v-1.15C18.02,20.44,17.7,20.13,17.31,20.13L17.31,20.13L17.31,20.13z
	 M33.2,14.47l-5.93,3.38c-1.14,0.42-2.36,0.57-3.57,0.43L7.1,16.64c-0.39-0.04-0.74,0.25-0.77,0.64c-0.04,0.39,0.25,0.74,0.64,0.77
	l16.61,1.63c0.29,0.03,0.61,0.04,0.94,0.04c1.19,0.04,2.37-0.18,3.47-0.65l5.93-3.38c0.33-0.22,0.41-0.66,0.2-0.98
	C33.9,14.42,33.52,14.31,33.2,14.47L33.2,14.47z"/>
</svg>
