<?xml version="1.0" encoding="utf-8"?>
<svg version="1.1" id="_x36_e407021-c93b-4f1a-8f99-e41957438506"
	 xmlns="http://www.w3.org/2000/svg" xmlns:xlink="http://www.w3.org/1999/xlink" x="0px" y="0px" viewBox="0 0 40.85 40.85"
	 style="enable-background:new 0 0 40.85 40.85; fill: #333;" xml:space="preserve">
<title>bike</title>
<path id="_x37_b238de4-a861-4cf1-b01e-199e997546a8" d="M16.42,13.13c0.23,0,0.46-0.01,0.71-0.02c0.39-0.04,0.68-0.38,0.64-0.77
	c-0.04-0.38-0.36-0.66-0.74-0.64c-2.97,0.2-3.62-1.05-3.64-1.09c-0.15-0.36-0.56-0.54-0.92-0.39c-0.36,0.15-0.54,0.56-0.39,0.92
	c0,0.01,0.01,0.01,0.01,0.02C12.12,11.24,12.96,13.13,16.42,13.13z M12.43,21.31c0.25-0.3,0.22-0.75-0.08-1
	c-0.3-0.25-0.75-0.22-1,0.08c-0.01,0.01-0.02,0.03-0.03,0.04l-3,3.81c-0.24,0.31-0.19,0.75,0.12,0.99c0.13,0.1,0.28,0.15,0.44,0.15
	h4.65c0.39,0,0.71-0.32,0.71-0.71s-0.32-0.71-0.71-0.71l0,0h-3.19L12.43,21.31z M31.91,16.94c-1.02,0-2.03,0.2-2.97,0.6l-2.94-5.47
	c-0.27-0.4-0.28-0.92-0.01-1.33c0.43-0.51,1.09-0.75,1.74-0.64c0.68,0.11,1.22,0.63,1.37,1.3c0.21,0.53,0.05,1.14-0.4,1.48
	c-0.34,0.19-0.47,0.62-0.28,0.96c0.19,0.34,0.62,0.47,0.96,0.28c0.02-0.01,0.03-0.02,0.05-0.03c1.01-0.68,1.44-1.96,1.03-3.11
	c-0.31-1.19-1.29-2.09-2.5-2.29c-1.19-0.21-2.39,0.26-3.13,1.21c-0.58,0.84-0.61,1.95-0.08,2.82l1.28,2.37h-9.64l-0.79-1.47
	c-0.18-0.35-0.6-0.49-0.95-0.31s-0.49,0.6-0.31,0.95c0.01,0.01,0.01,0.02,0.02,0.03l0.73,1.35l-0.86,1.09
	c-0.24,0.31-0.18,0.76,0.13,0.99c0.3,0.23,0.74,0.18,0.98-0.12l0.48-0.61l3.75,6.94h-1.38c-0.39,0.01-0.7,0.34-0.68,0.74
	c0.01,0.37,0.31,0.67,0.68,0.68h2.63c0.24,0,0.46-0.12,0.59-0.32l5.49-8.34l0.8,1.49c-3.5,2.33-4.44,7.06-2.11,10.56
	s7.06,4.44,10.56,2.11s4.44-7.06,2.11-10.56C36.83,18.21,34.45,16.94,31.91,16.94L31.91,16.94z M20.83,23.35l-3.68-6.82h8.17
	L20.83,23.35z M31.91,30.76c-3.42,0-6.2-2.78-6.19-6.21c0-2.02,0.99-3.92,2.65-5.08l2.92,5.42c0.2,0.34,0.63,0.46,0.97,0.26
	c0.33-0.19,0.45-0.6,0.28-0.93l-2.92-5.42c3.18-1.28,6.79,0.27,8.06,3.45s-0.27,6.79-3.45,8.06C33.49,30.61,32.7,30.76,31.91,30.76
	L31.91,30.76z M8.95,16.94c-4.21,0-7.62,3.41-7.62,7.62c0,4.21,3.41,7.62,7.62,7.62c4.21,0,7.62-3.41,7.62-7.62
	C16.56,20.35,13.15,16.95,8.95,16.94L8.95,16.94z M8.95,30.76c-3.42,0-6.2-2.78-6.2-6.2c0-3.42,2.78-6.2,6.2-6.2s6.2,2.78,6.2,6.2
	C15.14,27.98,12.37,30.76,8.95,30.76L8.95,30.76z"/>
</svg>
