<?xml version="1.0" encoding="utf-8"?>
<svg version="1.1" id="f4e98b71-da63-4ea3-b065-c27475be3e7e"
	 xmlns="http://www.w3.org/2000/svg" xmlns:xlink="http://www.w3.org/1999/xlink" x="0px" y="0px" viewBox="0 0 40.85 40.85"
	 style="enable-background:new 0 0 40.85 40.85; fill: #333;" xml:space="preserve">
<title>bomb</title>
<path id="_x39_bd3745a-b7c4-4b08-b8ea-4e0a0621f863" d="M23.37,18.48c0.09-0.56,0.24-1.1,0.46-1.63c0.15-0.36-0.03-0.78-0.39-0.92
	c-0.36-0.15-0.78,0.03-0.92,0.39l0,0c-0.33,0.81-0.54,1.67-0.62,2.55c-0.02,0.31,0.16,0.6,0.45,0.71c3.99,1.58,5.94,6.1,4.36,10.09
	c-1.58,3.99-6.1,5.94-10.09,4.36c-3.99-1.58-5.94-6.1-4.36-10.09c1.05-2.65,3.46-4.51,6.29-4.85c0.32-0.04,0.58-0.29,0.62-0.61
	c0.18-1.31,0.35-2.31,0.36-2.31c0.07-0.39-0.19-0.76-0.57-0.82c-0.39-0.07-0.76,0.19-0.82,0.57c0,0-0.14,0.76-0.29,1.85
	c-4.99,0.91-8.3,5.69-7.39,10.68c0.91,4.99,5.69,8.3,10.68,7.39c4.99-0.91,8.3-5.69,7.39-10.68C27.98,22.23,26.06,19.74,23.37,18.48
	z M16.95,20.94c-2.48,0.79-4.17,3.1-4.16,5.71c-0.01,0.39,0.29,0.72,0.68,0.74s0.72-0.29,0.74-0.68c0-0.02,0-0.04,0-0.05
	c-0.01-1.99,1.28-3.75,3.18-4.36c0.37-0.12,0.58-0.52,0.46-0.89S17.32,20.82,16.95,20.94L16.95,20.94z M20.51,19.34
	c0.35,0,0.64-0.25,0.7-0.59c0.32-2.46,1.21-4.8,2.62-6.84c0.25-0.3,0.2-0.75-0.1-1s-0.75-0.2-1,0.1c-1.57,2.22-2.57,4.8-2.92,7.5
	c-0.06,0.39,0.2,0.75,0.58,0.82C20.43,19.33,20.47,19.34,20.51,19.34L20.51,19.34z M30.21,10.96L27.35,9.3l0.66-3.61
	c0.07-0.38-0.19-0.75-0.57-0.82c-0.19-0.03-0.38,0.01-0.54,0.12l-3.17,2.28l-2.79-1.64c-0.34-0.2-0.77-0.08-0.97,0.25
	c-0.1,0.17-0.12,0.37-0.07,0.56l0.88,3.01l-3.31,1.57c-0.35,0.17-0.5,0.59-0.34,0.94c0.09,0.2,0.28,0.34,0.49,0.39l2.74,0.6
	c0.39,0.07,0.75-0.19,0.82-0.57c0.07-0.37-0.16-0.72-0.52-0.81l-0.71-0.15l1.98-0.94c0.31-0.15,0.47-0.5,0.38-0.84l-0.55-1.88
	l1.65,0.97c0.24,0.14,0.55,0.13,0.77-0.04l2.12-1.52l-0.43,2.36c-0.05,0.29,0.08,0.59,0.34,0.74l1.66,0.96l-1.64,0.32
	c-0.28,0.06-0.51,0.28-0.56,0.56l-0.37,1.94l-0.38-0.66c-0.19-0.34-0.62-0.47-0.96-0.28s-0.47,0.62-0.28,0.96
	c0.01,0.01,0.01,0.02,0.02,0.03l1.34,2.29c0.13,0.22,0.36,0.35,0.61,0.35c0.04,0,0.08,0,0.12-0.01c0.29-0.05,0.52-0.28,0.58-0.57
	l0.63-3.33l3.02-0.58c0.39-0.07,0.64-0.44,0.57-0.82C30.52,11.25,30.39,11.07,30.21,10.96L30.21,10.96z"/>
</svg>
