<?xml version="1.0" encoding="utf-8"?>
<svg version="1.1" id="_x34_db755ef-a670-456f-ab0f-ef75c811e10d"
	 xmlns="http://www.w3.org/2000/svg" xmlns:xlink="http://www.w3.org/1999/xlink" x="0px" y="0px" viewBox="0 0 40.85 40.85"
	 style="enable-background:new 0 0 40.85 40.85; fill: #333;" xml:space="preserve">
<title>brilliant</title>
<path id="c7ae48e3-803a-4dce-b7f1-4e6787a59fde" d="M33.57,15.57l-4.19-5.21c-0.12-0.14-0.28-0.24-0.47-0.26l-4.86-0.57h-7.11
	l-4.99,0.57c-0.19,0.02-0.36,0.11-0.47,0.26l-4.19,5.21c-0.2,0.25-0.21,0.61-0.01,0.87l12.59,16.59c0.01,0.01,0.02,0.02,0.03,0.03
	c0.03,0.03,0.05,0.06,0.08,0.09c0.01,0.01,0.01,0.01,0.02,0.02c0.03,0.02,0.05,0.03,0.08,0.04c0.02,0.01,0.04,0.03,0.07,0.04
	c0.03,0.01,0.05,0.02,0.08,0.03c0.01,0,0.01,0.01,0.02,0.01c0.12,0.03,0.24,0.03,0.36,0c0.01,0,0.01-0.01,0.02-0.01
	c0.03-0.01,0.06-0.02,0.08-0.03c0.02-0.01,0.05-0.02,0.07-0.04c0.03-0.01,0.05-0.03,0.08-0.04c0.01-0.01,0.01-0.01,0.02-0.02
	c0.03-0.03,0.06-0.06,0.08-0.09c0.01-0.01,0.02-0.02,0.03-0.03l12.59-16.59C33.77,16.18,33.77,15.83,33.57,15.57z M28.45,11.47
	l2.99,3.72h-5.83l-0.95-4.17L28.45,11.47z M17.64,11.08c0-0.05,0-0.09,0-0.14h5.56c0,0.03,0,0.06,0,0.09l0.95,4.17h-7.46
	L17.64,11.08z M12.4,11.48l3.8-0.44l-0.96,4.16H9.4L12.4,11.48z M9.18,16.61h6.31l3.34,12.72L9.18,16.61z M20.42,29.81l-3.47-13.2
	h6.94L20.42,29.81z M22.02,29.33l3.34-12.72h6.31L22.02,29.33z"/>
</svg>
