<?xml version="1.0" encoding="utf-8"?>
<svg version="1.1" id="_x31_155dc50-3636-489b-8f41-7fbf620d0392"
	 xmlns="http://www.w3.org/2000/svg" xmlns:xlink="http://www.w3.org/1999/xlink" x="0px" y="0px" viewBox="0 0 40.85 40.85"
	 style="enable-background:new 0 0 40.85 40.85; fill: #333;" xml:space="preserve">
<title>bubble</title>
<path id="c19ee452-5860-496c-92ec-e945dedbd199" d="M22.05,20.57h-7.11c-0.39-0.01-0.72,0.29-0.74,0.68s0.29,0.72,0.68,0.74
	c0.02,0,0.04,0,0.05,0h7.11c0.39,0.01,0.72-0.29,0.74-0.68s-0.29-0.72-0.68-0.74C22.09,20.57,22.07,20.57,22.05,20.57z M25.91,17.4
	H14.94c-0.39-0.01-0.72,0.29-0.74,0.68s0.29,0.72,0.68,0.74c0.02,0,0.04,0,0.05,0h10.96c0.39,0.01,0.72-0.29,0.74-0.68
	s-0.29-0.72-0.68-0.74C25.94,17.4,25.92,17.4,25.91,17.4L25.91,17.4z M20.43,6.06c-7.29,0-13.19,5.9-13.19,13.19
	c0,3.15,1.13,6.2,3.18,8.59c0.04,2.07-0.53,4.11-1.64,5.86c-0.19,0.34-0.08,0.77,0.26,0.97c0.09,0.05,0.2,0.08,0.31,0.09
	c0.29,0.02,0.58,0.03,0.87,0.03c2.7,0.05,5.32-0.9,7.36-2.65c7.11,1.58,14.16-2.92,15.73-10.03c1.58-7.11-2.92-14.16-10.03-15.73
	C22.34,6.17,21.38,6.06,20.43,6.06L20.43,6.06z M20.43,31.03c-0.97,0-1.94-0.12-2.88-0.36c-0.23-0.06-0.48,0.01-0.65,0.17
	c-1.73,1.59-3.99,2.49-6.34,2.52c0.95-1.8,1.39-3.83,1.26-5.86c-0.01-0.16-0.07-0.3-0.18-0.42c-4.32-4.86-3.89-12.3,0.96-16.62
	c4.86-4.32,12.3-3.89,16.62,0.96c4.32,4.86,3.89,12.3-0.96,16.62C26.1,29.97,23.31,31.03,20.43,31.03L20.43,31.03z"/>
</svg>
