<?xml version="1.0" encoding="utf-8"?>
<svg version="1.1" id="_x39_b14dfaf-cd8f-440e-8a1c-aa1da014f538"
	 xmlns="http://www.w3.org/2000/svg" xmlns:xlink="http://www.w3.org/1999/xlink" x="0px" y="0px" viewBox="0 0 40.85 40.85"
	 style="enable-background:new 0 0 40.85 40.85; fill: #333;" xml:space="preserve">
<title>calculator</title>
<path id="_x38_27b9b58-5b4c-460e-ab61-25e5e02d4e97" d="M12.98,31.34c0.28,0.28,0.72,0.28,1,0l0.95-0.96l0.95,0.96
	c0.26,0.3,0.7,0.33,1,0.07s0.33-0.7,0.07-1c-0.02-0.03-0.05-0.05-0.07-0.07l-0.95-0.96l0.95-0.96c0.3-0.26,0.33-0.7,0.07-1
	c-0.26-0.3-0.7-0.33-1-0.07c-0.03,0.02-0.05,0.05-0.07,0.07l-0.95,0.96l-0.95-0.96c-0.3-0.26-0.74-0.22-1,0.07
	c-0.23,0.27-0.23,0.66,0,0.93l0.95,0.96l-0.95,0.96C12.7,30.61,12.7,31.06,12.98,31.34z M12.88,20.44h1.35v1.35
	c0,0.39,0.32,0.71,0.71,0.71c0.39,0,0.71-0.32,0.71-0.71v-1.35H17c0.39,0.01,0.72-0.29,0.74-0.68c0.01-0.39-0.29-0.72-0.68-0.74
	c-0.02,0-0.04,0-0.05,0h-1.35v-1.35c0-0.39-0.32-0.71-0.71-0.71c-0.39,0-0.71,0.32-0.71,0.71v1.35h-1.35
	c-0.39,0-0.71,0.32-0.71,0.71S12.48,20.44,12.88,20.44L12.88,20.44z M24.07,28.96h4.12c0.39,0.01,0.72-0.29,0.74-0.68
	c0.01-0.39-0.29-0.72-0.68-0.74c-0.02,0-0.04,0-0.05,0h-4.12c-0.39,0-0.71,0.32-0.71,0.71S23.68,28.96,24.07,28.96
	C24.07,28.96,24.07,28.96,24.07,28.96L24.07,28.96z M30.27,6.25H10.58c-1.08,0-1.96,0.88-1.96,1.96v24.42
	c0,1.08,0.88,1.96,1.96,1.96h19.69c1.08,0,1.96-0.88,1.96-1.96V8.22C32.23,7.13,31.35,6.25,30.27,6.25L30.27,6.25z M19.83,33.18
	h-9.25c-0.3,0-0.54-0.24-0.54-0.54v-7.36h9.79V33.18L19.83,33.18z M19.83,23.86h-9.79v-8.1h9.79V23.86z M30.81,32.63
	c0,0.3-0.24,0.54-0.54,0.54h-9.02v-7.9h9.56V32.63L30.81,32.63z M30.81,23.86h-9.56v-8.1h9.56V23.86z M30.81,14.34H10.04V8.22
	c0-0.3,0.24-0.54,0.54-0.54h19.69c0.3,0,0.54,0.24,0.54,0.54l0,0V14.34L30.81,14.34z M24.07,31.22h4.12
	c0.39,0.01,0.72-0.29,0.74-0.68c0.01-0.39-0.29-0.72-0.68-0.74c-0.02,0-0.04,0-0.05,0h-4.12c-0.39-0.01-0.72,0.29-0.74,0.68
	c-0.01,0.39,0.29,0.72,0.68,0.74C24.03,31.22,24.05,31.22,24.07,31.22z M24.07,20.44h4.12c0.39,0.01,0.72-0.29,0.74-0.68
	c0.01-0.39-0.29-0.72-0.68-0.74c-0.02,0-0.04,0-0.05,0h-4.12c-0.39,0-0.71,0.32-0.71,0.71S23.68,20.44,24.07,20.44L24.07,20.44z"/>
</svg>
