<?xml version="1.0" encoding="utf-8"?>
<svg version="1.1" id="f0691128-4621-4d13-b8b3-d0fcc3443ea8"
	 xmlns="http://www.w3.org/2000/svg" xmlns:xlink="http://www.w3.org/1999/xlink" x="0px" y="0px" viewBox="0 0 40.85 40.85"
	 style="enable-background:new 0 0 40.85 40.85; fill: #333;" xml:space="preserve">
<title>cinema</title>
<path id="_x38_6f58202-f68b-4027-9e8f-225a3ec4980d" d="M26.24,19.13c2.42,0,4.39-1.96,4.39-4.39c0-2.42-1.96-4.39-4.39-4.39
	c-2.42,0-4.39,1.96-4.39,4.39c0,1.17,0.46,2.28,1.29,3.11C23.96,18.67,25.08,19.13,26.24,19.13z M24.14,12.64
	c1.15-1.17,3.03-1.19,4.2-0.04s1.19,3.03,0.04,4.2c-0.01,0.01-0.03,0.03-0.04,0.04c-1.17,1.12-3.03,1.12-4.2,0
	C22.98,15.68,22.98,13.8,24.14,12.64L24.14,12.64z M14.74,19c2.42,0,4.39-1.96,4.39-4.39c0-2.42-1.96-4.39-4.39-4.39
	c-2.42,0-4.39,1.96-4.39,4.39c0,1.17,0.46,2.28,1.29,3.11C12.46,18.54,13.58,19,14.74,19L14.74,19z M12.64,12.51
	c1.15-1.17,3.03-1.19,4.2-0.04s1.19,3.03,0.04,4.2c-0.01,0.01-0.03,0.03-0.04,0.04c-1.17,1.12-3.03,1.12-4.2,0
	C11.48,15.55,11.48,13.67,12.64,12.51C12.64,12.51,12.64,12.51,12.64,12.51L12.64,12.51z M23.01,23.14c-1.71,1.71-1.71,4.49,0,6.21
	s4.49,1.71,6.21,0c1.71-1.71,1.71-4.49,0-6.21c0,0,0,0,0,0C27.5,21.43,24.72,21.43,23.01,23.14L23.01,23.14z M28.21,28.34
	c-1.16,1.16-3.04,1.16-4.2,0c-1.16-1.16-1.16-3.04,0-4.2c1.16-1.16,3.04-1.16,4.2,0C29.37,25.3,29.37,27.18,28.21,28.34L28.21,28.34
	z M14.61,21.72c-2.42,0-4.39,1.96-4.39,4.38c0,2.42,1.96,4.39,4.38,4.39c2.42,0,4.39-1.96,4.39-4.38c0-1.16-0.46-2.28-1.28-3.11
	C16.89,22.18,15.77,21.72,14.61,21.72L14.61,21.72z M16.71,28.21c-1.19,1.13-3.07,1.08-4.2-0.12c-1.08-1.15-1.08-2.94,0-4.08
	c1.18-1.12,3.02-1.12,4.2,0C17.87,25.17,17.87,27.05,16.71,28.21L16.71,28.21z M20.42,5.09c-8.47,0-15.33,6.87-15.33,15.33
	c0,8.47,6.87,15.33,15.33,15.33c8.47,0,15.33-6.87,15.33-15.33c0,0,0,0,0,0C35.75,11.96,28.89,5.1,20.42,5.09L20.42,5.09z
	 M20.42,34.34c-7.69,0-13.92-6.23-13.92-13.92c0-7.69,6.23-13.92,13.92-13.92c7.69,0,13.92,6.23,13.92,13.92c0,0,0,0,0,0
	C34.33,28.1,28.11,34.33,20.42,34.34L20.42,34.34z M22.86,20.42c0-1.35-1.09-2.44-2.44-2.44s-2.44,1.09-2.44,2.44
	s1.09,2.44,2.44,2.44c0,0,0,0,0,0C21.77,22.86,22.87,21.77,22.86,20.42L22.86,20.42z M20.42,21.45c-0.56,0-1.02-0.46-1.02-1.02
	c0-0.57,0.46-1.02,1.02-1.03c0.56,0,1.02,0.46,1.02,1.02c0,0,0,0,0,0C21.45,20.99,20.99,21.45,20.42,21.45L20.42,21.45z"/>
</svg>
