<?xml version="1.0" encoding="utf-8"?>
<svg version="1.1" id="_x31_9f63d88-97a4-440d-b552-ebedd9e989e1"
	 xmlns="http://www.w3.org/2000/svg" xmlns:xlink="http://www.w3.org/1999/xlink" x="0px" y="0px" viewBox="0 0 40.85 40.85"
	 style="enable-background:new 0 0 40.85 40.85; fill: #333;" xml:space="preserve">
<title>clapperboard</title>
<path id="_x31_c549675-09f3-46f9-a713-c21778332af2" d="M13.48,29.74h14.47c0.39,0.01,0.72-0.29,0.74-0.68
	c0.01-0.39-0.29-0.72-0.68-0.74c-0.02,0-0.04,0-0.05,0H13.48c-0.39-0.01-0.72,0.29-0.74,0.68c-0.01,0.39,0.29,0.72,0.68,0.74
	C13.45,29.74,13.46,29.74,13.48,29.74z M31.75,15.48H16.67L31.3,12.4c0.38-0.08,0.63-0.46,0.55-0.84c0,0,0,0,0,0l-0.4-1.92
	C31.3,8.93,30.89,8.3,30.3,7.87c-0.58-0.43-1.31-0.59-2.02-0.45l-17.84,3.76c-0.7,0.15-1.31,0.6-1.66,1.22
	c-0.37,0.63-0.48,1.37-0.33,2.08l0.4,1.92c0.02,0.09,0.06,0.18,0.11,0.26v13.99c-0.05,1.51,1.13,2.77,2.63,2.82h18.23
	c1.5-0.06,2.68-1.32,2.63-2.82V16.19C32.46,15.8,32.14,15.48,31.75,15.48z M28.79,8.79c0.25,0,0.48,0.09,0.68,0.23
	c0.3,0.22,0.51,0.55,0.58,0.91l0.26,1.22l-2.47,0.52L28.79,8.79z M25.14,9.53l2.06-0.43l-0.95,2.91l-2.06,0.43L25.14,9.53z
	 M21.48,10.3l2.06-0.43l-0.95,2.91l-2.06,0.43L21.48,10.3z M17.82,11.08l2.06-0.43l-0.95,2.91l-2.06,0.43L17.82,11.08z M14.16,11.85
	l2.06-0.43l-0.95,2.91l-2.06,0.43L14.16,11.85z M9.84,14.19c-0.08-0.37-0.02-0.75,0.17-1.07c0.15-0.28,0.42-0.48,0.73-0.55
	l1.82-0.38l-0.95,2.91l-1.51,0.32L9.84,14.19z M31.04,30.65c0.04,0.72-0.5,1.34-1.21,1.41H11.6c-0.72-0.07-1.25-0.69-1.21-1.41V16.9
	h20.66V30.65z"/>
</svg>
