<?xml version="1.0" encoding="utf-8"?>
<svg version="1.1" id="_x31_97f6b95-5c8b-4bf1-ba73-03dcf1d6844e"
	 xmlns="http://www.w3.org/2000/svg" xmlns:xlink="http://www.w3.org/1999/xlink" x="0px" y="0px" viewBox="0 0 40.85 40.85"
	 style="enable-background:new 0 0 40.85 40.85; fill: #333;" xml:space="preserve">
<title>cloud-download</title>
<path id="_x33_6e0a798-d0fb-47e1-8aae-a5a8dc8e0d67" d="M32.43,17.84c0.02-0.18,0.02-0.35,0.02-0.52c0-3.18-2.58-5.76-5.76-5.75
	c-0.8,0-1.6,0.17-2.33,0.49c-2.54-3.75-7.64-4.73-11.39-2.19c-2.19,1.49-3.53,3.94-3.6,6.59c-3.45,0.11-6.17,2.99-6.06,6.45
	c0.1,3.37,2.87,6.06,6.24,6.06h7.49c0.39-0.01,0.7-0.34,0.68-0.74c-0.01-0.37-0.31-0.67-0.68-0.68H9.56c-2.67,0-4.84-2.16-4.85-4.83
	c0-2.67,2.16-4.84,4.83-4.85c0,0,0.01,0,0.01,0c0.16,0,0.32,0.01,0.47,0.02c0.39,0.04,0.74-0.25,0.77-0.64c0-0.04,0-0.08,0-0.12
	c-0.01-0.16-0.02-0.33-0.02-0.49c-0.01-3.75,3.03-6.79,6.77-6.79c2.46,0,4.73,1.33,5.93,3.47c0.19,0.34,0.62,0.46,0.96,0.27
	c0.01,0,0.01-0.01,0.02-0.01c2.06-1.23,4.72-0.55,5.95,1.51c0.59,0.98,0.76,2.16,0.48,3.27c-0.06,0.22,0,0.45,0.15,0.63
	c0.15,0.18,0.37,0.27,0.6,0.25c0.11-0.01,0.22-0.01,0.33-0.01c2.3,0,4.16,1.87,4.15,4.16c0,2.29-1.86,4.15-4.15,4.15h-8.17
	c-0.39-0.01-0.72,0.29-0.74,0.68s0.29,0.72,0.68,0.74c0.02,0,0.04,0,0.05,0h8.17c3.08-0.03,5.55-2.55,5.52-5.63
	C37.47,20.48,35.28,18.1,32.43,17.84z M23.78,31.16l-2.64,2.77V21.96c0-0.39-0.32-0.71-0.71-0.71c-0.39,0-0.71,0.32-0.71,0.71v11.95
	l-2.63-2.76c-0.26-0.29-0.71-0.32-1-0.07c-0.29,0.26-0.32,0.71-0.07,1c0.01,0.02,0.03,0.03,0.04,0.04l3.86,4.04
	c0.27,0.28,0.72,0.29,1,0.02c0.01-0.01,0.01-0.01,0.02-0.02l3.86-4.04c0.27-0.28,0.26-0.73-0.02-1
	C24.5,30.86,24.05,30.87,23.78,31.16L23.78,31.16z M16.46,11.59c-2.43,0.77-4.09,3.04-4.08,5.59c-0.01,0.39,0.29,0.72,0.68,0.74
	c0.39,0.01,0.72-0.29,0.74-0.68c0-0.02,0-0.04,0-0.05c-0.01-1.94,1.25-3.65,3.09-4.24c0.37-0.12,0.58-0.52,0.46-0.89
	C17.23,11.67,16.84,11.47,16.46,11.59z"/>
</svg>
