<?xml version="1.0" encoding="utf-8"?>
<svg version="1.1" id="e34b9044-2e48-493f-9de8-4dc1be4e5a58"
	 xmlns="http://www.w3.org/2000/svg" xmlns:xlink="http://www.w3.org/1999/xlink" x="0px" y="0px" viewBox="0 0 40.85 40.85"
	 style="enable-background:new 0 0 40.85 40.85; fill: #333;" xml:space="preserve">
<title>cloud-upload</title>
<path id="dbb83b80-2fc4-4e3f-a5a4-35e27d44602d" d="M17.39,13.46c-0.12-0.37-0.52-0.58-0.89-0.46c0,0,0,0,0,0
	c-2.43,0.77-4.09,3.04-4.08,5.59c0.01,0.39,0.34,0.7,0.74,0.68c0.37-0.01,0.67-0.31,0.68-0.68c-0.01-1.94,1.25-3.65,3.09-4.24
	C17.3,14.24,17.51,13.84,17.39,13.46C17.39,13.47,17.39,13.46,17.39,13.46z M24.29,25.29c0.39,0,0.71-0.31,0.71-0.71
	c0-0.18-0.07-0.36-0.2-0.49l-3.86-4.04c-0.28-0.28-0.74-0.28-1.02,0l-3.86,4.04c-0.26,0.29-0.23,0.74,0.07,1
	c0.28,0.24,0.69,0.23,0.96-0.02l2.63-2.76v11.96c-0.01,0.39,0.29,0.72,0.68,0.74s0.72-0.29,0.74-0.68c0-0.02,0-0.04,0-0.05V22.3
	l2.64,2.77C23.91,25.21,24.09,25.29,24.29,25.29L24.29,25.29z M32.42,19.26c0.02-0.17,0.02-0.35,0.02-0.52
	c0-3.18-2.58-5.76-5.76-5.76c-0.8,0-1.59,0.17-2.33,0.49c-2.54-3.75-7.64-4.73-11.39-2.19c-2.19,1.49-3.53,3.94-3.6,6.59
	c-3.45,0.09-6.19,2.96-6.1,6.41c0.09,3.4,2.88,6.11,6.28,6.1h7.49c0.39-0.01,0.7-0.34,0.68-0.74c-0.01-0.37-0.31-0.67-0.68-0.68
	H9.56c-2.67,0-4.84-2.16-4.85-4.83c0-2.67,2.16-4.84,4.83-4.85c0,0,0.01,0,0.01,0c0.16,0,0.32,0.01,0.48,0.02
	c0.21,0.02,0.41-0.05,0.56-0.2c0.15-0.15,0.23-0.35,0.21-0.56c-0.01-0.16-0.02-0.33-0.02-0.49c0-3.75,3.03-6.78,6.78-6.79
	c2.46,0,4.72,1.33,5.92,3.47c0.09,0.17,0.25,0.29,0.44,0.34c0.18,0.05,0.38,0.02,0.55-0.08c2.06-1.23,4.72-0.55,5.95,1.5
	c0.59,0.99,0.76,2.16,0.48,3.28c-0.09,0.38,0.14,0.76,0.52,0.86c0.07,0.02,0.15,0.02,0.23,0.02c0.11-0.01,0.22-0.01,0.33-0.01
	c2.3,0,4.16,1.87,4.15,4.16c0,2.29-1.86,4.15-4.15,4.15H23.8c-0.39,0.01-0.7,0.34-0.68,0.74c0.01,0.37,0.31,0.67,0.68,0.68h8.17
	c3.08-0.05,5.53-2.59,5.47-5.67C37.4,21.88,35.24,19.54,32.42,19.26L32.42,19.26z"/>
</svg>
