<?xml version="1.0" encoding="utf-8"?>
<svg version="1.1" id="_x33_74b75f7-239b-4a3e-92a9-6a48abcfe5bf"
	 xmlns="http://www.w3.org/2000/svg" xmlns:xlink="http://www.w3.org/1999/xlink" x="0px" y="0px" viewBox="0 0 40.85 40.85"
	 style="enable-background:new 0 0 40.85 40.85; fill: #333;" xml:space="preserve">
<title>column</title>
<path id="_x35_09379a3-05e6-4a9f-a60d-7eca91d4726f" d="M23.48,8.95c-1.98-0.66-4.13-0.66-6.11,0c-0.37,0.13-0.56,0.53-0.44,0.9
	c0.13,0.37,0.53,0.56,0.9,0.44c1.69-0.56,3.51-0.56,5.2,0c0.36,0.16,0.78,0,0.94-0.35s0-0.78-0.35-0.94
	C23.57,8.97,23.52,8.96,23.48,8.95z M27.35,34.41H13.49c-0.39-0.01-0.72,0.29-0.74,0.68c-0.01,0.39,0.29,0.72,0.68,0.74
	c0.02,0,0.04,0,0.05,0h13.86c0.39,0.02,0.72-0.28,0.75-0.67c0.02-0.39-0.28-0.72-0.67-0.75C27.4,34.41,27.38,34.41,27.35,34.41
	L27.35,34.41z M22.8,11.97c0.33,5.64,0.6,10.64,0.92,18.13c0.02,0.38,0.33,0.68,0.71,0.68h0.03c0.39-0.02,0.69-0.35,0.68-0.74
	c-0.32-7.5-0.59-12.5-0.92-18.15c-0.03-0.39-0.36-0.68-0.75-0.67C23.08,11.25,22.78,11.58,22.8,11.97
	C22.8,11.97,22.8,11.97,22.8,11.97L22.8,11.97z M20.46,5.02C20,5.02,9.2,5.09,9.2,10.94c-0.03,0.96,0.35,1.88,1.04,2.54
	c0.72,0.65,1.66,1.01,2.64,1.01c0.08,0,0.16,0,0.24-0.01c1.01-0.04,1.92-0.6,2.43-1.46c0.44-0.71,0.5-1.58,0.16-2.34
	c-0.48-0.99-1.63-1.46-2.67-1.08c-0.7,0.19-1.12,0.89-0.97,1.6c0.09,0.38,0.47,0.61,0.85,0.52c0.35-0.08,0.58-0.41,0.54-0.76
	c0.13-0.06,0.28-0.09,0.42-0.06c0.24,0.03,0.45,0.18,0.55,0.41c0.13,0.33,0.09,0.71-0.11,1.01c-0.27,0.46-0.76,0.74-1.29,0.76
	c-0.66,0.04-1.32-0.18-1.82-0.62c-0.41-0.39-0.62-0.94-0.6-1.51c0-3.69,7.1-4.5,9.84-4.5c2.72,0,9.77,0.81,9.77,4.5
	c0.02,0.57-0.19,1.11-0.6,1.51c-0.5,0.44-1.15,0.66-1.82,0.62c-0.53-0.02-1.02-0.31-1.29-0.76c-0.2-0.3-0.24-0.67-0.11-1.01
	c0.1-0.22,0.31-0.38,0.55-0.41c0.14-0.02,0.29,0,0.42,0.06c-0.04,0.39,0.24,0.74,0.63,0.78c0.35,0.04,0.68-0.19,0.76-0.54
	c0.15-0.71-0.28-1.41-0.97-1.6c-1.03-0.38-2.19,0.09-2.66,1.08c-0.34,0.76-0.28,1.64,0.16,2.34c0.51,0.87,1.42,1.42,2.43,1.46
	c1.05,0.07,2.09-0.29,2.88-1c0.69-0.66,1.07-1.58,1.04-2.54C31.65,6.27,24.61,5.02,20.46,5.02L20.46,5.02z M14.28,32.92
	c0.06,0.39,0.41,0.65,0.8,0.6c3.54-0.51,7.13-0.51,10.67,0c0.38,0.08,0.76-0.17,0.84-0.55s-0.17-0.76-0.55-0.84
	c-0.03-0.01-0.05-0.01-0.08-0.01c-3.67-0.53-7.4-0.53-11.08,0C14.5,32.17,14.23,32.53,14.28,32.92L14.28,32.92z M16.63,11.9
	c-0.09,1.84-0.17,3.69-0.26,5.56c-0.18,3.95-0.36,8.05-0.66,12.56c-0.03,0.39,0.27,0.73,0.66,0.75c0,0,0,0,0,0h0.05
	c0.37,0,0.68-0.29,0.71-0.66c0.3-4.53,0.48-8.63,0.66-12.59c0.08-1.87,0.17-3.71,0.26-5.55c0.02-0.39-0.28-0.72-0.67-0.74
	c0,0,0,0,0,0C16.99,11.22,16.66,11.51,16.63,11.9L16.63,11.9z"/>
</svg>
