<?xml version="1.0" encoding="utf-8"?>
<svg version="1.1" id="_x35_93d0aad-7fdd-4075-9fb2-86a353efdd02"
	 xmlns="http://www.w3.org/2000/svg" xmlns:xlink="http://www.w3.org/1999/xlink" x="0px" y="0px" viewBox="0 0 40.85 40.85"
	 style="enable-background:new 0 0 40.85 40.85; fill: #333;" xml:space="preserve">
<title>cone</title>
<path id="_x36_6332240-ac37-472e-859c-138e8e52c42d" d="M17.25,13.22c0.25,0.01,0.51,0.02,0.77,0.02c1.9-0.02,3.78-0.31,5.59-0.86
	c0.37-0.13,0.57-0.53,0.44-0.9c-0.12-0.35-0.49-0.55-0.85-0.46c-1.9,0.59-3.9,0.86-5.89,0.79c-0.39-0.02-0.72,0.27-0.74,0.66
	c0,0.01,0,0.01,0,0.02C16.56,12.87,16.86,13.2,17.25,13.22z M12.85,28.94c0.39,0.05,0.74-0.22,0.79-0.61c0,0,0,0,0-0.01l2.19-17.18
	c0.26-2.04,2.41-2.95,4.43-2.95s4.34,0.97,4.61,3.09l2.17,17.04c0.05,0.35,0.34,0.62,0.7,0.62c0.03,0,0.06,0,0.09-0.01
	c0.39-0.05,0.66-0.4,0.61-0.79l-2.16-17.04c-0.38-2.97-3.39-4.33-6.02-4.33s-5.46,1.3-5.83,4.19l-2.19,17.18
	C12.2,28.53,12.47,28.89,12.85,28.94L12.85,28.94z M15.99,20.28c-0.02,0.39,0.28,0.72,0.67,0.74c0.3,0.01,0.61,0.02,0.91,0.02
	c2.25-0.02,4.48-0.36,6.63-1.02c0.37-0.13,0.57-0.53,0.44-0.9c-0.12-0.35-0.49-0.55-0.85-0.46c-2.29,0.71-4.68,1.03-7.07,0.94
	C16.34,19.59,16.01,19.89,15.99,20.28C15.99,20.28,15.99,20.28,15.99,20.28L15.99,20.28z M35.63,31.23L33.23,26
	c-0.57-1.25-1.27-1.46-2.73-1.46h-0.63c-0.39,0-0.71,0.32-0.71,0.71s0.32,0.71,0.71,0.71h0.63c1.15,0,1.18,0.07,1.44,0.63l2.4,5.23
	c0.1,0.18,0.1,0.4,0,0.58c-0.15,0.18-0.38,0.28-0.61,0.25H7.62c-0.4,0.06-0.8-0.07-1.09-0.36c-0.15-0.31-0.14-0.67,0.02-0.97
	c0.45-0.97,0.78-1.69,1.12-2.41s0.67-1.43,1.11-2.4c0.25-0.56,0.26-0.56,1.18-0.56h0.99c0.39,0,0.71-0.32,0.71-0.71
	s-0.32-0.71-0.71-0.71H9.95c-1.06,0-1.82,0-2.46,1.39c-0.44,0.97-0.78,1.68-1.11,2.39s-0.67,1.44-1.13,2.45
	c-0.35,0.74-0.31,1.62,0.11,2.33c0.53,0.7,1.39,1.07,2.26,0.98h26.1c0.72,0.03,1.4-0.31,1.81-0.91
	C35.89,32.57,35.93,31.85,35.63,31.23L35.63,31.23z M14.73,28.14c-0.02,0.39,0.28,0.72,0.67,0.74c0.4,0.02,0.8,0.03,1.21,0.03
	c3-0.03,5.98-0.49,8.85-1.37c0.38-0.1,0.61-0.49,0.51-0.86c-0.1-0.38-0.49-0.61-0.86-0.51c-0.02,0-0.03,0.01-0.05,0.01
	c-3.1,0.96-6.35,1.4-9.59,1.28C15.08,27.45,14.75,27.75,14.73,28.14C14.73,28.14,14.73,28.14,14.73,28.14L14.73,28.14z"/>
</svg>
