<?xml version="1.0" encoding="utf-8"?>
<svg version="1.1" id="_x36_cc54b0e-2ebc-4611-af45-73c6521a420f"
	 xmlns="http://www.w3.org/2000/svg" xmlns:xlink="http://www.w3.org/1999/xlink" x="0px" y="0px" viewBox="0 0 40.85 40.85"
	 style="enable-background:new 0 0 40.85 40.85; fill: #333;" xml:space="preserve">
<title>crown</title>
<path id="_x37_7c5b515-5fda-4590-a16f-d83ed8ad9103" d="M32.91,12.37c-1.35,0-2.44,1.09-2.44,2.44c0,0.48,0.15,0.96,0.42,1.36
	l-3.09,4.11l-5.28-7.12c0.25-0.39,0.38-0.85,0.35-1.31c0-1.35-1.1-2.44-2.44-2.43c-1.34,0-2.43,1.09-2.43,2.43
	c-0.03,0.48,0.1,0.95,0.37,1.35l-5.07,7.09l-3.3-4.15c0.73-1.13,0.41-2.64-0.72-3.37c-1.13-0.73-2.64-0.41-3.37,0.72
	c-0.73,1.13-0.41,2.64,0.72,3.37c0.19,0.12,0.4,0.22,0.62,0.29v13.59c0,0.39,0.32,0.71,0.71,0.71h0h24.96
	c0.39,0,0.71-0.32,0.71-0.71v0V17.15c1.29-0.39,2.01-1.76,1.62-3.04C34.93,13.07,33.98,12.37,32.91,12.37z M7.94,15.83
	c-0.56,0-1.02-0.46-1.02-1.02c0-0.56,0.46-1.02,1.02-1.02c0.56,0,1.02,0.46,1.02,1.02c0,0.3-0.13,0.58-0.35,0.77
	C8.49,15.68,8.26,15.83,7.94,15.83z M32.2,30.02H8.65v-13.3l4.12,5.19c0.14,0.17,0.35,0.27,0.57,0.27c0.22-0.01,0.43-0.12,0.56-0.3
	l5.95-8.33c0.21-0.29,0.17-0.7-0.1-0.94c-0.26-0.16-0.39-0.46-0.34-0.76c0-0.56,0.45-1.02,1.02-1.02c0.56,0,1.02,0.45,1.02,1.02
	c0,0,0,0.01,0,0.01s-0.08,0.59-0.33,0.75c-0.27,0.25-0.3,0.65-0.09,0.94l6.19,8.35c0.14,0.17,0.35,0.27,0.57,0.29
	c0.22,0,0.43-0.1,0.57-0.28l3.84-5.11L32.2,30.02L32.2,30.02z M32.91,15.83c-0.25-0.01-0.52-0.12-0.65-0.24
	c-0.43-0.36-0.49-1.01-0.13-1.44c0.36-0.43,1.01-0.49,1.44-0.13c0.43,0.36,0.49,1.01,0.13,1.44C33.5,15.7,33.21,15.83,32.91,15.83z
	 M9.92,28.07c0,0.39,0.32,0.71,0.71,0.71h0h19.59c0.39,0.01,0.72-0.29,0.74-0.68c0.01-0.39-0.29-0.72-0.68-0.74
	c-0.02,0-0.04,0-0.05,0H10.63C10.24,27.36,9.92,27.68,9.92,28.07C9.92,28.07,9.92,28.07,9.92,28.07z"/>
</svg>
