<?xml version="1.0" encoding="utf-8"?>
<svg version="1.1" id="adf133d3-25dc-4987-98c9-4767c89840ed"
	 xmlns="http://www.w3.org/2000/svg" xmlns:xlink="http://www.w3.org/1999/xlink" x="0px" y="0px" viewBox="0 0 40.85 40.85"
	 style="enable-background:new 0 0 40.85 40.85; fill: #333;" xml:space="preserve">
<title>cube</title>
<path id="cf22f649-c093-4deb-ad41-b3718a44edfe" d="M31.92,13.28l-11.5,6.19L8.93,13.26c-0.35-0.17-0.78-0.03-0.95,0.32
	c-0.16,0.33-0.04,0.74,0.28,0.93l11.45,6.2l0.01,13.02c0,0.39,0.32,0.71,0.71,0.71c0,0,0,0,0,0l0,0c0.39,0,0.71-0.32,0.71-0.71
	c0,0,0,0,0,0L21.13,20.7l11.46-6.17c0.35-0.18,0.49-0.6,0.31-0.95s-0.6-0.49-0.95-0.31C31.94,13.27,31.93,13.27,31.92,13.28z
	 M32.36,10.13l-8.53-4.71c-2.66-1.63-3.98-1.64-6.72-0.06l-8.53,4.71c-2.83,1.4-3.5,2.49-3.43,5.58v9.41
	C5,28.12,5.66,29.23,8.48,30.72l8.53,4.71c0.98,0.72,2.15,1.14,3.36,1.23c1.21-0.09,2.37-0.5,3.36-1.18l8.52-4.7
	c2.83-1.4,3.5-2.49,3.43-5.58v-9.41C35.84,12.73,35.19,11.61,32.36,10.13L32.36,10.13z M34.27,15.74v9.46
	c0.06,2.55-0.31,3.15-2.67,4.31l-8.56,4.72l-0.01,0.01c-2.31,1.34-3.05,1.34-5.31-0.05l-8.57-4.73c-2.35-1.23-2.71-1.84-2.59-4.36
	v-9.46c-0.06-2.55,0.31-3.15,2.67-4.31l8.57-4.73c0.78-0.56,1.7-0.9,2.65-1c0.96,0.1,1.88,0.46,2.65,1.04l8.57,4.73
	C34.04,12.61,34.4,13.22,34.27,15.74L34.27,15.74z"/>
</svg>
