<?xml version="1.0" encoding="utf-8"?>
<svg version="1.1" id="aa290005-f368-4d7c-9096-ce5bcea4cedc"
	 xmlns="http://www.w3.org/2000/svg" xmlns:xlink="http://www.w3.org/1999/xlink" x="0px" y="0px" viewBox="0 0 40.85 40.85"
	 style="enable-background:new 0 0 40.85 40.85; fill: #333;" xml:space="preserve">
<title>dashboard</title>
<path id="_x33_372244a-8f28-4494-859d-bbdd22bcf3fe" d="M12.88,26.51c-2.24,0.74-4.66-0.49-5.39-2.73
	c-0.74-2.24,0.49-4.66,2.73-5.39c0.11-0.04,0.22-0.07,0.33-0.09c0.38-0.1,0.6-0.49,0.5-0.87c-0.1-0.36-0.46-0.59-0.83-0.51
	c-3.05,0.75-4.93,3.83-4.18,6.88s3.83,4.93,6.88,4.18c0.14-0.03,0.27-0.07,0.41-0.12c0.37-0.11,0.59-0.51,0.47-0.88
	c-0.11-0.37-0.51-0.59-0.88-0.47C12.9,26.5,12.89,26.51,12.88,26.51z M23.01,16.04l-1.6,2.05c-1.31-0.53-2.8,0.1-3.34,1.41
	c-0.53,1.31,0.1,2.8,1.41,3.34c1.31,0.53,2.8-0.1,3.34-1.41c0.33-0.82,0.22-1.75-0.3-2.46l1.6-2.05c0.23-0.32,0.15-0.76-0.17-0.99
	C23.65,15.72,23.25,15.77,23.01,16.04z M20.46,21.56c-0.62,0-1.12-0.5-1.12-1.12c0-0.62,0.5-1.12,1.12-1.12
	c0.62,0,1.12,0.5,1.12,1.12C21.59,21.06,21.08,21.56,20.46,21.56L20.46,21.56z M36.44,17.52C29.37,8.7,16.49,7.28,7.66,14.36
	c-1.23,0.99-2.35,2.11-3.32,3.36c-2.01,2.43-2.42,5.82-1.04,8.66c1.39,2.85,4.29,4.65,7.46,4.63h7.42c4.36,0,8.9-0.01,12.77,0h0
	c2.87-0.13,5.41-1.88,6.57-4.51C38.96,23.55,38.54,20.04,36.44,17.52L36.44,17.52z M36.24,25.86c-0.92,2.14-2.96,3.58-5.29,3.71h0
	c-3.87-0.01-8.41,0-12.77,0h-7.42c-2.63,0.02-5.03-1.47-6.18-3.83c-1.13-2.36-0.79-5.15,0.89-7.16c6.48-8.29,18.46-9.76,26.75-3.27
	c1.16,0.91,2.21,1.95,3.13,3.1C37.09,20.5,37.44,23.42,36.24,25.86L36.24,25.86z M20.46,12.14c-4.58,0-8.3,3.72-8.3,8.3
	s3.72,8.3,8.3,8.3c4.58,0,8.3-3.72,8.3-8.3v0C28.76,15.86,25.05,12.15,20.46,12.14z M20.46,27.32c-3.8,0-6.88-3.08-6.88-6.88
	s3.08-6.88,6.88-6.88s6.88,3.08,6.88,6.88C27.34,24.24,24.26,27.32,20.46,27.32z M30.65,16.91c-0.38-0.08-0.76,0.16-0.84,0.55
	c-0.08,0.37,0.15,0.73,0.51,0.83c2.3,0.55,3.71,2.86,3.16,5.16c-0.55,2.3-2.86,3.71-5.16,3.16c-0.11-0.03-0.22-0.06-0.33-0.09
	c-0.37-0.11-0.77,0.1-0.88,0.47c-0.11,0.36,0.09,0.75,0.44,0.87c2.99,0.98,6.2-0.65,7.18-3.64c0.98-2.99-0.65-6.2-3.64-7.18
	C30.94,16.99,30.8,16.95,30.65,16.91L30.65,16.91z"/>
</svg>
