<?xml version="1.0" encoding="utf-8"?>
<svg version="1.1" id="_x38_6487db9-a4fd-4e87-ab20-21a2e6e5435d"
	 xmlns="http://www.w3.org/2000/svg" xmlns:xlink="http://www.w3.org/1999/xlink" x="0px" y="0px" viewBox="0 0 40.85 40.85"
	 style="enable-background:new 0 0 40.85 40.85; fill: #333;" xml:space="preserve">
<title>drum</title>
<path id="ee5fb740-725b-49a5-ae90-9fdac4c9ca2b" d="M19.08,6.54c0.4,0,0.79-0.1,1.13-0.3l0,0c1.09-0.62,1.47-2.01,0.85-3.1
	c-0.62-1.09-2.01-1.47-3.1-0.85c-0.86,0.49-1.3,1.47-1.1,2.44l-12.12,7c-0.34,0.19-0.46,0.63-0.27,0.97s0.63,0.46,0.97,0.27
	c0,0,0,0,0.01,0l12.12-7C17.98,6.33,18.52,6.54,19.08,6.54z M18.64,3.53c0.41-0.24,0.93-0.1,1.17,0.31c0.24,0.41,0.1,0.93-0.31,1.17
	c-0.41,0.24-0.93,0.1-1.17-0.31l0,0C18.1,4.29,18.24,3.77,18.64,3.53C18.65,3.53,18.65,3.53,18.64,3.53L18.64,3.53z M36.37,6.88
	c-0.2-0.34-0.63-0.45-0.97-0.26l-12.12,7c-0.93-0.83-2.37-0.75-3.2,0.18c-0.83,0.93-0.75,2.37,0.18,3.2
	c0.26,0.24,0.58,0.41,0.92,0.5c0.19,0.05,0.39,0.08,0.59,0.08c1.24,0.01,2.26-1,2.26-2.24c0-0.16-0.02-0.33-0.05-0.49l12.12-7
	C36.45,7.65,36.57,7.22,36.37,6.88C36.37,6.88,36.37,6.88,36.37,6.88L36.37,6.88z M22.2,16.05c-0.41,0.24-0.93,0.1-1.17-0.31
	c-0.24-0.41-0.1-0.93,0.31-1.17c0.41-0.24,0.93-0.1,1.17,0.31l0,0C22.75,15.29,22.61,15.81,22.2,16.05L22.2,16.05z M30,12.2
	c-0.37-0.11-0.77,0.1-0.88,0.47s0.1,0.77,0.47,0.88c0.01,0,0.02,0.01,0.04,0.01c2.49,0.68,3.15,1.45,3.15,1.76
	c0,0.93-4.11,2.73-11.65,2.73s-11.65-1.8-11.65-2.73c0-0.93,4.11-2.73,11.65-2.73c0.8,0,1.61,0.02,2.4,0.07
	c0.39,0.03,0.72-0.27,0.75-0.65c0-0.01,0-0.01,0-0.02c0.02-0.39-0.28-0.72-0.67-0.75c0,0,0,0,0,0c-7.26-0.4-15.55,1.01-15.55,4.07
	c0.02,0.5,0.23,0.97,0.59,1.31C8.62,16.7,8.6,16.76,8.6,16.82v13.39c-0.32,0.07-0.54,0.35-0.55,0.68c0,2.72,6.58,4.14,13.07,4.14
	s13.07-1.42,13.07-4.14c0-0.33-0.23-0.61-0.55-0.68V16.82c0-0.06-0.02-0.13-0.04-0.18c0.36-0.35,0.57-0.82,0.59-1.31
	C34.2,14.01,32.79,12.96,30,12.2L30,12.2z M10.02,17.61c2.43,1.23,6.78,1.86,11.11,1.86s8.68-0.63,11.11-1.86v2.7l-1.98,7.83
	l-3.2-6.83c-0.17-0.35-0.59-0.51-0.94-0.34c-0.13,0.06-0.24,0.16-0.31,0.28l-4.79,8.08l-4.19-7.99c-0.18-0.35-0.61-0.48-0.96-0.3
	c-0.12,0.06-0.22,0.16-0.29,0.28l-3.85,6.81l-1.7-7.5L10.02,17.61L10.02,17.61z M21.12,33.62c-6.02,0-9.85-1.15-11.15-2.08
	c0.03-0.07,0.04-0.14,0.04-0.21v-4.27l0.72,3.17c0.09,0.38,0.47,0.62,0.85,0.53c0.19-0.04,0.36-0.17,0.46-0.34l4.12-7.28l4.18,7.96
	c0.12,0.23,0.35,0.37,0.61,0.38h0.02c0.25,0,0.48-0.13,0.61-0.35l4.76-8.02l3.48,7.42c0.13,0.27,0.41,0.43,0.71,0.4
	c0.3-0.03,0.55-0.24,0.62-0.53l1.09-4.32v5.24c0,0.07,0.02,0.14,0.04,0.21C30.98,32.46,27.15,33.62,21.12,33.62L21.12,33.62z"/>
</svg>
