<?xml version="1.0" encoding="utf-8"?>
<svg version="1.1" id="fe96a1fa-73c9-4ad4-bf0e-8d0528302fa3"
	 xmlns="http://www.w3.org/2000/svg" xmlns:xlink="http://www.w3.org/1999/xlink" x="0px" y="0px" viewBox="0 0 40.85 40.85"
	 style="enable-background:new 0 0 40.85 40.85; fill: #333;" xml:space="preserve">
<title>extinguisher</title>
<path id="_x31_03f64f4-6370-4798-b556-98f498f067b2" d="M19.39,6.64c0,0.02,0.02,0.03,0.02,0.05c0.03,0.09,0.08,0.17,0.14,0.24
	c0.01,0.01,0.02,0.03,0.03,0.05C19.6,7,19.63,7.02,19.65,7.03c0.03,0.03,0.07,0.05,0.11,0.07c0.08,0.04,0.17,0.06,0.26,0.07
	c0.02,0,0.04,0.01,0.06,0.01c0.03,0,0.06-0.01,0.08-0.02c0.03,0,0.06,0,0.08,0c2.95-0.72,6.03,1.79,6.06,1.82
	c0.31,0.24,0.76,0.18,0.99-0.13c0.22-0.29,0.18-0.71-0.09-0.96c-1.35-1.07-2.93-1.81-4.61-2.16c1.32-0.43,2.71-0.58,4.09-0.44
	c0.39,0.02,0.72-0.28,0.74-0.68c0.02-0.34-0.22-0.65-0.55-0.72c-0.19-0.02-4.68-0.59-7.3,2.1c-0.02,0.02-0.03,0.04-0.04,0.07
	c-0.06,0.07-0.1,0.15-0.12,0.24c-0.01,0.04-0.02,0.09-0.02,0.13c0,0.05,0,0.09,0.01,0.14C19.38,6.6,19.38,6.62,19.39,6.64z
	 M9.58,6.18C9.23,6.37,9.1,6.8,9.29,7.14l0,0c0.3,1.02,0.43,2.09,0.37,3.16c0.05,1.06-0.07,2.12-0.36,3.13
	c-0.17,0.35-0.01,0.78,0.34,0.94s0.78,0.01,0.94-0.34c0.38-1.21,0.55-2.47,0.5-3.73c0.06-1.3-0.12-2.6-0.55-3.83
	C10.36,6.13,9.93,6,9.58,6.18L9.58,6.18L9.58,6.18z M22.98,12.98V9.61c-0.02-1-0.85-1.79-1.85-1.76c-0.96,0.02-1.74,0.8-1.76,1.76
	v3.38c-2.92,0.81-4.94,3.47-4.95,6.5v10.94c0,3.73,3.02,6.76,6.76,6.76s6.76-3.02,6.76-6.76V19.49
	C27.92,16.46,25.9,13.8,22.98,12.98L22.98,12.98z M20.78,9.61c-0.01-0.21,0.15-0.4,0.37-0.41c0.21-0.01,0.4,0.15,0.41,0.37
	c0,0.01,0,0.03,0,0.04v3.14c-0.13-0.01-0.26-0.02-0.39-0.02s-0.26,0.01-0.39,0.02L20.78,9.61L20.78,9.61z M26.51,30.43
	c0,2.95-2.39,5.34-5.34,5.34s-5.34-2.39-5.34-5.34V19.49c0-2.95,2.39-5.34,5.34-5.34l0,0c2.95,0,5.34,2.39,5.34,5.34V30.43
	L26.51,30.43z M17.39,12.65c0.87-0.46,1.43-1.35,1.46-2.33c-0.02-0.98-0.58-1.86-1.44-2.31l-0.65-0.38
	c-1.55-0.9-5.18-3.02-6.49-3.74l0,0c-0.5-0.3-1.12-0.31-1.62-0.02c-1.6,0.95-1.73,5.14-1.73,6.4c0,1.99,0.22,5.46,1.7,6.37
	c0.25,0.16,0.54,0.24,0.84,0.24c0.31-0.01,0.61-0.08,0.88-0.23c1.42-0.72,4.97-2.79,6.48-3.67L17.39,12.65z M16.11,11.76
	c-1.37,0.8-5.02,2.93-6.41,3.63c-0.09,0.08-0.23,0.1-0.34,0.04c-0.59-0.36-1.03-2.58-1.03-5.16c0-2.16,0.42-4.82,1.03-5.18
	C9.38,5.08,9.4,5.08,9.41,5.08c0.07,0,0.13,0.02,0.18,0.06c1.29,0.7,4.9,2.81,6.45,3.71l0.66,0.38c0.42,0.2,0.7,0.62,0.73,1.08
	c-0.03,0.47-0.32,0.9-0.75,1.1L16.11,11.76z M20.18,15.33c-1.37,0.29-2.5,1.25-3.01,2.56c-0.15,0.36,0.02,0.78,0.38,0.93
	c0.36,0.15,0.78-0.02,0.93-0.38c0.01-0.01,0.01-0.03,0.02-0.04c0.34-0.86,1.08-1.49,1.98-1.68c0.39-0.07,0.64-0.44,0.57-0.82
	c-0.07-0.39-0.44-0.64-0.82-0.57C20.21,15.33,20.2,15.33,20.18,15.33L20.18,15.33z"/>
</svg>
