<?xml version="1.0" encoding="utf-8"?>
<svg version="1.1" id="ea020d56-9858-4621-859f-8be27e6d05b9"
	 xmlns="http://www.w3.org/2000/svg" xmlns:xlink="http://www.w3.org/1999/xlink" x="0px" y="0px" viewBox="0 0 40.85 40.85"
	 style="enable-background:new 0 0 40.85 40.85; fill: #333;" xml:space="preserve">
<title>frontier</title>
<path id="b9df4d98-333e-4a45-9d91-4a356a075195" d="M33.36,12.19l-3.07-3.27c-0.13-0.14-0.32-0.22-0.52-0.22h-4.53
	c-0.08,0-0.17,0.02-0.25,0.05l-0.01-0.09c-0.01-0.16-0.07-0.31-0.18-0.43c-1.14-1.36-2.82-2.15-4.6-2.16
	c-1.65,0.08-3.18,0.88-4.19,2.19c-0.09,0.12-0.15,0.26-0.16,0.41V8.7H8.01C7.62,8.7,7.3,9.01,7.3,9.4c0,0.18,0.07,0.35,0.19,0.48
	l2.62,2.79l-2.62,2.85c-0.27,0.29-0.25,0.74,0.04,1c0.13,0.12,0.3,0.19,0.48,0.19h7.37l-1.04,17.33c-0.02,0.39,0.27,0.73,0.66,0.75
	c0.01,0,0.03,0,0.04,0h10.77c0.39,0,0.71-0.32,0.71-0.71c0-0.01,0-0.03,0-0.04l-1.04-17.33c0.01,0,0.02,0.01,0.03,0.01h4.27
	c0.2,0,0.39-0.08,0.52-0.23l3.07-3.33C33.62,12.88,33.62,12.46,33.36,12.19z M17.26,8.98c0.74-0.9,1.82-1.44,2.99-1.5
	C21.52,7.5,22.73,8.05,23.59,9l0.13,2.14l-6.79,3.42L17.26,8.98z M16.83,16.2l6.99-3.52l0.35,5.75l-7.7,3.88L16.83,16.2z
	 M16.36,23.95l7.89-3.98l0.35,5.73l-8.6,4.33L16.36,23.95z M15.46,15.3H9.62l1.98-2.15c0.25-0.27,0.25-0.69,0-0.97l-1.96-2.08h6.13
	L15.46,15.3z M15.79,33.38l0.1-1.71h0.01l8.78-4.42l0.37,6.14L15.79,33.38L15.79,33.38z M29.46,15.3H25.5
	c-0.04,0-0.08,0.01-0.11,0.02l-0.32-5.24c0.05,0.02,0.11,0.03,0.17,0.03h4.23l2.41,2.57L29.46,15.3z"/>
</svg>
