<?xml version="1.0" encoding="utf-8"?>
<svg version="1.1" id="_x36_24606d8-78ef-4f21-934b-83d6217cc91e"
	 xmlns="http://www.w3.org/2000/svg" xmlns:xlink="http://www.w3.org/1999/xlink" x="0px" y="0px" viewBox="0 0 40.85 40.85"
	 style="enable-background:new 0 0 40.85 40.85; fill: #333;" xml:space="preserve">
<title>ghost</title>
<path id="_x35_6776b8c-d311-423d-bd83-ea5577676ef5" d="M15.09,12.17c-1.25,0.78-2.21,1.95-2.73,3.33
	c-0.13,0.37,0.06,0.77,0.42,0.91c0.37,0.13,0.77-0.06,0.91-0.43c0.4-1.07,1.14-1.97,2.1-2.58c0.34-0.19,0.46-0.63,0.26-0.97
	S15.43,11.98,15.09,12.17z M20.32,16.42c-1.81,0-3.29,1.76-3.29,3.93s1.48,3.93,3.29,3.93s3.29-1.76,3.29-3.93
	S22.13,16.42,20.32,16.42L20.32,16.42z M20.32,22.86c-1.02,0-1.87-1.15-1.87-2.51s0.86-2.51,1.87-2.51c0.25,0,0.5,0.07,0.72,0.2
	c-0.85,0.36-1.4,1.21-1.36,2.14c-0.05,1.06,0.67,2,1.7,2.23C21.09,22.69,20.71,22.85,20.32,22.86L20.32,22.86z M21.77,21.02
	c-0.34,0.22-0.75,0.02-0.91-0.45c-0.16-0.46-0.01-1.02,0.33-1.24c0.34-0.22,0.97,0.1,0.97,0.84C22.2,20.56,22.03,20.91,21.77,21.02
	L21.77,21.02z M20.47,7.75C14.1,7.76,8.93,12.93,8.92,19.3v13.09c0,0.39,0.32,0.71,0.71,0.71c0.17,0,0.34-0.06,0.47-0.17l1.78-1.55
	c1.32-1.15,1.32-1.15,2.7,0.01c1.96,1.69,2.56,1.68,4.58-0.06c1.27-1.1,1.27-1.1,2.59,0.06c2.05,1.79,2.56,1.66,4.44,0.12l0.14-0.11
	c1.44-1.17,1.44-1.17,2.73-0.04l1.77,1.57c0.29,0.26,0.74,0.23,1-0.06c0.11-0.13,0.18-0.3,0.18-0.47V19.3
	C32.01,12.92,26.84,7.76,20.47,7.75L20.47,7.75z M30.55,30.82l-0.6-0.53c-1.9-1.68-2.5-1.68-4.56,0l-0.14,0.11
	c-1.3,1.06-1.3,1.06-2.62-0.09c-0.58-0.68-1.38-1.13-2.26-1.29c-0.85,0.15-1.62,0.58-2.19,1.23c-1.4,1.21-1.4,1.2-2.74,0.05
	c-1.99-1.68-2.63-1.68-4.55,0l-0.6,0.53V19.3c0-5.59,4.53-10.13,10.12-10.13c4.79,0,8.93,3.36,9.91,8.05
	c-0.53-0.5-1.23-0.78-1.96-0.79c-1.81,0-3.29,1.76-3.29,3.93s1.48,3.93,3.29,3.93c0.84-0.02,1.63-0.38,2.18-1.01L30.55,30.82
	L30.55,30.82z M29.42,22.41c-0.28,0.28-0.66,0.44-1.05,0.45c-1.02,0-1.87-1.15-1.87-2.51s0.86-2.51,1.87-2.51
	c0.26,0,0.51,0.07,0.73,0.21c-0.84,0.37-1.38,1.22-1.35,2.14C27.7,21.23,28.4,22.16,29.42,22.41L29.42,22.41z M29.06,20.18
	c-0.06-0.37,0.2-0.84,0.64-0.84c0.33,0.04,0.57,0.39,0.53,0.9c0.04,0.35-0.2,0.77-0.58,0.78C29.28,21.02,29,20.56,29.06,20.18
	L29.06,20.18z"/>
</svg>
