<?xml version="1.0" encoding="utf-8"?>
<svg version="1.1" id="_x34_e06be8b-b78c-4508-a6b7-1d0464a3133e"
	 xmlns="http://www.w3.org/2000/svg" xmlns:xlink="http://www.w3.org/1999/xlink" x="0px" y="0px" viewBox="0 0 40.85 40.85"
	 style="enable-background:new 0 0 40.85 40.85; fill: #333;" xml:space="preserve">
<title>ice-cream</title>
<path id="c7096b78-8314-4695-8419-5492f170fecc" d="M21.91,29.09c-0.39,0-0.71,0.32-0.71,0.71v0v4.83c0,0.43-0.35,0.78-0.78,0.78
	s-0.78-0.35-0.78-0.78v-4.9c0-0.39-0.32-0.71-0.71-0.71c-0.39,0-0.71,0.32-0.71,0.71v4.9c0,1.22,0.99,2.2,2.2,2.2
	c1.21,0,2.19-0.98,2.2-2.2V29.8C22.62,29.41,22.31,29.09,21.91,29.09C21.92,29.09,21.91,29.09,21.91,29.09z M20.42,4.02
	c-4.19,0-7.59,3.4-7.59,7.59v9.25c0,4.19,3.4,7.59,7.59,7.59s7.59-3.4,7.59-7.59v-9.25C28.01,7.42,24.62,4.02,20.42,4.02L20.42,4.02
	z M26.6,20.86c0,3.41-2.76,6.18-6.18,6.18s-6.18-2.76-6.18-6.18v-9.25c0-3.41,2.76-6.18,6.18-6.18s6.18,2.76,6.18,6.18V20.86z
	 M21.35,10.12c-0.2-0.12-0.39-0.23-0.56-0.33c-1.52-0.92-2.72-1.64-5.32,0.07c-0.33,0.21-0.42,0.65-0.2,0.98
	c0.21,0.33,0.65,0.42,0.98,0.2c1.86-1.22,2.39-0.9,3.81-0.04c0.19,0.11,0.38,0.23,0.59,0.35c0.62,0.38,1.33,0.59,2.06,0.6
	c1.09-0.04,2.12-0.52,2.84-1.33c0.26-0.29,0.23-0.74-0.06-1c-0.29-0.25-0.72-0.23-0.98,0.04C23.72,10.6,22.35,10.8,21.35,10.12z"/>
</svg>
