<?xml version="1.0" encoding="utf-8"?>
<svg version="1.1" id="_x33_dc72e21-db7f-49f0-8b99-ce98ebb78e21"
	 xmlns="http://www.w3.org/2000/svg" xmlns:xlink="http://www.w3.org/1999/xlink" x="0px" y="0px" viewBox="0 0 40.85 40.85"
	 style="enable-background:new 0 0 40.85 40.85; fill: #333;" xml:space="preserve">
<title>joystick</title>
<path id="_x30_033a495-52ae-47f0-8c31-d36d5703c182" d="M26.63,19.51c1.02,0,1.85-0.83,1.85-1.85c0-1.02-0.83-1.85-1.85-1.85
	s-1.85,0.83-1.85,1.85l0,0C24.78,18.68,25.61,19.51,26.63,19.51z M26.63,17.24c0.24,0,0.43,0.19,0.43,0.43s-0.19,0.43-0.43,0.43
	c-0.24,0-0.43-0.19-0.43-0.43l0,0C26.2,17.43,26.39,17.24,26.63,17.24z M16.85,19.82h-2.17v-2.17c0.01-0.39-0.29-0.72-0.68-0.74
	s-0.72,0.29-0.74,0.68c0,0.02,0,0.04,0,0.05v2.17h-2.17c-0.39,0-0.71,0.32-0.71,0.71s0.32,0.71,0.71,0.71h2.17v2.17
	c0,0.39,0.32,0.71,0.71,0.71c0.39,0,0.71-0.32,0.71-0.71l0,0v-2.17h2.17c0.39-0.01,0.7-0.34,0.68-0.73
	C17.52,20.13,17.22,19.83,16.85,19.82L16.85,19.82z M36.71,28.6c-0.09-0.35-0.23-0.88-0.39-1.53c-0.83-3.66-1.9-7.26-3.2-10.79
	c-0.78-2.07-2.79-3.42-5-3.35h-7.21V7.83c0-0.39-0.32-0.71-0.71-0.71c-0.39,0-0.71,0.32-0.71,0.71v5.11h-6.78
	c-2.11,0.06-4.01,1.29-4.92,3.2C6.87,18.41,4.16,28.5,4.14,28.6c-0.59,1.7,0.07,3.59,1.6,4.54c0.63,0.38,1.35,0.59,2.09,0.59
	c0.82,0.02,1.63-0.27,2.25-0.81c1.52-1.34,2.95-2.79,4.27-4.33c2.16-0.02,9.97-0.06,12.17-0.01c1.32,1.55,2.75,3,4.27,4.34
	c1.24,1,2.99,1.1,4.34,0.23C36.64,32.19,37.31,30.3,36.71,28.6z M34.38,31.93c-0.81,0.54-1.87,0.51-2.65-0.07
	c-1.56-1.37-3.01-2.86-4.34-4.45c-0.13-0.15-0.31-0.24-0.51-0.25c-1.79-0.07-11.2-0.02-12.88,0c-0.21,0-0.4,0.09-0.53,0.25
	c-1.34,1.59-2.79,3.07-4.34,4.45c-0.78,0.58-1.84,0.61-2.65,0.07c-0.98-0.64-1.38-1.87-0.97-2.96c0.7-2.6,2.86-10.45,3.61-12.3
	c0.68-1.38,2.07-2.27,3.6-2.32h15.4c1.65-0.08,3.15,0.93,3.7,2.48c1.27,3.45,2.31,6.99,3.13,10.58c0.16,0.67,0.3,1.2,0.39,1.56
	C35.76,30.06,35.36,31.3,34.38,31.93z M26.62,21.5c-1.02,0-1.85,0.83-1.85,1.85c0,1.02,0.83,1.85,1.85,1.85
	c1.02,0,1.85-0.83,1.85-1.85C28.47,22.33,27.64,21.5,26.62,21.5L26.62,21.5z M26.62,23.78c-0.24,0-0.43-0.19-0.43-0.43
	c0-0.24,0.19-0.43,0.43-0.43c0.24,0,0.43,0.19,0.43,0.43l0,0C27.05,23.58,26.86,23.78,26.62,23.78L26.62,23.78z M29.46,18.66
	c-1.02,0-1.85,0.83-1.85,1.85c0,1.02,0.83,1.85,1.85,1.85s1.85-0.83,1.85-1.85c0,0,0,0,0,0C31.31,19.49,30.48,18.66,29.46,18.66
	L29.46,18.66z M29.46,20.93c-0.24,0-0.43-0.19-0.43-0.43c0-0.24,0.19-0.43,0.43-0.43s0.43,0.19,0.43,0.43c0,0,0,0,0,0
	C29.89,20.74,29.7,20.93,29.46,20.93L29.46,20.93z M25.63,20.51c0-1.02-0.83-1.85-1.85-1.85s-1.85,0.83-1.85,1.85
	s0.83,1.85,1.85,1.85h0C24.8,22.35,25.63,21.53,25.63,20.51L25.63,20.51z M23.78,20.93c-0.24,0-0.43-0.19-0.43-0.43
	s0.19-0.43,0.43-0.43c0.24,0,0.43,0.19,0.43,0.43l0,0C24.21,20.74,24.02,20.94,23.78,20.93L23.78,20.93L23.78,20.93z"/>
</svg>
