<?xml version="1.0" encoding="utf-8"?>
<svg version="1.1" id="d5c199a7-3c1c-4fb5-8a5b-3da2a657dc75"
	 xmlns="http://www.w3.org/2000/svg" xmlns:xlink="http://www.w3.org/1999/xlink" x="0px" y="0px" viewBox="0 0 40.85 40.85"
	 style="enable-background:new 0 0 40.85 40.85; fill: #333;" xml:space="preserve">
<title>justify</title>
<path id="_x37_9d1d062-3de6-464b-9b62-2e2d303164ac" d="M10.04,13.44h20.68c1.13,0,2.05-0.93,2.05-2.06c0-1.13-0.92-2.05-2.05-2.05
	H10.04c-1.13,0-2.06,0.91-2.06,2.05c0,1.13,0.91,2.06,2.05,2.06C10.03,13.44,10.04,13.44,10.04,13.44z M10.04,10.75h20.68
	c0.35,0,0.64,0.29,0.64,0.64c0,0.35-0.29,0.63-0.64,0.64H10.04c-0.35,0-0.64-0.29-0.64-0.64C9.4,11.03,9.69,10.75,10.04,10.75
	L10.04,10.75z M10.04,25.49h20.77c1.13,0,2.06-0.91,2.06-2.05c0-1.13-0.91-2.06-2.05-2.06c0,0-0.01,0-0.01,0H10.04
	c-1.13,0-2.06,0.91-2.06,2.05c0,1.13,0.91,2.06,2.05,2.06C10.03,25.49,10.04,25.49,10.04,25.49z M10.04,22.8h20.77
	c0.35,0,0.64,0.29,0.64,0.64c0,0.35-0.29,0.63-0.64,0.64H10.04c-0.35,0-0.63-0.29-0.64-0.64C9.4,23.09,9.69,22.8,10.04,22.8z
	 M30.59,27.41H10.04c-1.13,0-2.06,0.91-2.06,2.05c0,1.13,0.91,2.06,2.05,2.06c0,0,0.01,0,0.01,0h20.55c1.14,0,2.06-0.92,2.06-2.06
	C32.64,28.33,31.72,27.41,30.59,27.41L30.59,27.41z M30.59,30.1H10.04c-0.35,0-0.64-0.29-0.64-0.64s0.29-0.64,0.64-0.64h20.55
	c0.35,0,0.64,0.29,0.64,0.64C31.22,29.82,30.94,30.1,30.59,30.1L30.59,30.1z M10.04,19.47h20.68c1.13,0,2.06-0.91,2.06-2.05
	c0-1.13-0.91-2.06-2.05-2.06c0,0-0.01,0-0.01,0H10.04c-1.13,0-2.06,0.91-2.06,2.05c0,1.13,0.91,2.06,2.05,2.06
	C10.03,19.47,10.04,19.47,10.04,19.47z M10.04,16.77h20.68c0.35,0,0.64,0.29,0.64,0.64c0,0.35-0.29,0.63-0.64,0.64H10.04
	c-0.35,0-0.64-0.29-0.64-0.64S9.69,16.77,10.04,16.77z"/>
</svg>
