<?xml version="1.0" encoding="utf-8"?>
<svg version="1.1" id="e2e7540b-290a-48cf-a04c-6de3d4bd96b6"
	 xmlns="http://www.w3.org/2000/svg" xmlns:xlink="http://www.w3.org/1999/xlink" x="0px" y="0px" viewBox="0 0 40.85 40.85"
	 style="enable-background:new 0 0 40.85 40.85; fill: #333;" xml:space="preserve">
<title>matryoshka</title>
<path id="_x32_1eb0bc4-5755-4001-a8e3-a244a025ba4c" d="M18.14,22.29c0.1-0.38-0.12-0.77-0.49-0.87c-0.38-0.1-0.77,0.12-0.87,0.49
	c-0.68,2.47-2.11,2.99-3.44,3.02c0.16-2.01,1.63-3.68,3.61-4.09c0.38-0.1,0.61-0.48,0.51-0.86c-0.09-0.37-0.46-0.6-0.83-0.52
	c-2.91,0.63-4.9,3.3-4.68,6.27l0.08,0.56l0.57,0.04c0.19,0.01,0.38,0.02,0.57,0.02C15.73,26.35,17.4,24.99,18.14,22.29z M20.43,8.08
	h-0.02c-0.39,0.01-0.7,0.34-0.69,0.73c0,0,0,0,0,0c0.07,1.67-1.22,3.08-2.89,3.15c-0.01,0-0.02,0-0.02,0
	c-0.39,0.01-0.7,0.33-0.7,0.72c0.01,0.39,0.33,0.7,0.72,0.7l0,0h0.02c2.45-0.09,4.36-2.14,4.28-4.59c0,0,0,0,0-0.01
	C21.13,8.39,20.81,8.08,20.43,8.08L20.43,8.08z M19.96,32.48c-1.61,0.14-3.19-0.47-4.28-1.66c-0.25-0.3-0.69-0.35-1-0.1
	s-0.35,0.69-0.1,1c0.01,0.01,0.01,0.02,0.02,0.02c1.25,1.38,3.01,2.17,4.87,2.2c0.23,0,0.46-0.01,0.68-0.04
	c0.39-0.05,0.66-0.41,0.61-0.8C20.71,32.7,20.35,32.43,19.96,32.48L19.96,32.48z M30.66,19.46L30.66,19.46
	c-1.54-2.71-1.52-3.55-1.48-5.58c0.01-0.38,0.02-0.8,0.02-1.27c-0.05-4.85-4.03-8.74-8.88-8.69c-4.78,0.05-8.64,3.91-8.69,8.69
	c0,0.53,0.02,0.99,0.05,1.43c0.22,1.82-0.26,3.65-1.34,5.13c-3.36,5.57-1.57,12.8,4,16.16c5.57,3.36,12.8,1.57,16.16-4
	C32.69,27.69,32.76,23.16,30.66,19.46L30.66,19.46z M20.42,35.61c-5.72,0-10.35-4.64-10.35-10.36c0-1.89,0.52-3.74,1.49-5.35
	c1.23-1.72,1.78-3.84,1.54-5.94c-0.02-0.41-0.05-0.85-0.05-1.35c-0.05-4.07,3.21-7.4,7.28-7.45c4.07-0.05,7.4,3.21,7.45,7.28
	c0,0.06,0,0.11,0,0.17c0,0.46-0.01,0.87-0.02,1.24c-0.05,2.17-0.07,3.26,1.66,6.31c2.81,4.98,1.06,11.3-3.92,14.11
	C23.95,35.15,22.2,35.61,20.42,35.61L20.42,35.61z M24.28,19.46c-0.38-0.08-0.76,0.17-0.84,0.55c-0.08,0.37,0.15,0.74,0.52,0.83
	c1.98,0.41,3.45,2.08,3.61,4.09c-1.33-0.03-2.75-0.55-3.44-3.02c-0.1-0.38-0.49-0.6-0.87-0.49c-0.38,0.1-0.6,0.49-0.49,0.87l0,0
	c0.75,2.7,2.42,4.06,4.97,4.06c0.18,0,0.37-0.01,0.56-0.02l0.57-0.04l0.08-0.56C29.19,22.77,27.19,20.09,24.28,19.46L24.28,19.46z
	 M22.48,18.46c3.29-1.14,5.04-4.73,3.9-8.02c-1.14-3.29-4.73-5.04-8.02-3.9c-3.29,1.14-5.04,4.73-3.9,8.02
	c0.63,1.83,2.07,3.27,3.9,3.9c-0.82,1.14-0.56,2.73,0.58,3.55c1.14,0.82,2.73,0.56,3.55-0.58C23.13,20.54,23.13,19.34,22.48,18.46
	L22.48,18.46z M20.42,21.06c-0.62,0-1.13-0.5-1.13-1.13s0.5-1.13,1.13-1.13s1.13,0.5,1.13,1.13C21.54,20.55,21.04,21.05,20.42,21.06
	L20.42,21.06z M20.42,17.39c-2.7,0-4.89-2.19-4.89-4.89s2.19-4.89,4.89-4.89s4.89,2.19,4.89,4.89l0,0
	C25.31,15.2,23.12,17.38,20.42,17.39L20.42,17.39z M24.01,13.38c0.39,0.01,0.71-0.3,0.72-0.7c0.01-0.39-0.3-0.71-0.7-0.72l0,0
	c-0.79-0.06-1.53-0.39-2.09-0.94c-0.3-0.26-0.74-0.22-1,0.07c-0.23,0.27-0.23,0.66,0,0.93c0.82,0.8,1.9,1.28,3.04,1.35L24.01,13.38
	L24.01,13.38z"/>
</svg>
