<?xml version="1.0" encoding="utf-8"?>
<svg version="1.1" id="be5d6c5c-e604-4a8f-94f4-9409432bfec5"
	 xmlns="http://www.w3.org/2000/svg" xmlns:xlink="http://www.w3.org/1999/xlink" x="0px" y="0px" viewBox="0 0 40.85 40.85"
	 style="enable-background:new 0 0 40.85 40.85; fill: #333;" xml:space="preserve">
<title>medal</title>
<path id="_x38_da72602-d000-4d10-9f46-0aed5d885926" d="M20.43,20.04c-3.27,0-5.92,2.65-5.92,5.92c0,0.39,0.32,0.71,0.71,0.71
	c0.39,0,0.71-0.32,0.71-0.71l0,0c0-2.48,2.02-4.5,4.5-4.5c0.39,0,0.71-0.32,0.71-0.71C21.13,20.36,20.82,20.04,20.43,20.04z
	 M20.43,17.44c-4.7,0-8.51,3.81-8.51,8.52c0,4.7,3.81,8.51,8.51,8.51c4.7,0,8.51-3.81,8.51-8.51
	C28.93,21.26,25.12,17.45,20.43,17.44L20.43,17.44z M20.43,33.05c-3.92,0-7.1-3.18-7.1-7.1s3.18-7.1,7.1-7.1
	c3.92,0,7.1,3.18,7.1,7.1C27.52,29.87,24.35,33.05,20.43,33.05L20.43,33.05z M28.99,6.37H11.86c-0.39,0-0.71,0.32-0.71,0.71
	c0,0,0,0,0,0v3.9c0,0.27,0.16,0.52,0.4,0.64l8.62,4.17c0.1,0.05,0.2,0.07,0.31,0.07c0.11,0,0.21-0.02,0.31-0.07l8.51-4.17
	c0.24-0.12,0.4-0.36,0.4-0.64v-3.9C29.71,6.69,29.39,6.37,28.99,6.37C28.99,6.38,28.99,6.38,28.99,6.37L28.99,6.37z M12.56,7.79
	h3.98l-3.98,1.94V7.79L12.56,7.79z M28.28,10.54l-7.8,3.82l-7.12-3.44l6.41-3.13h8.51V10.54z"/>
</svg>
