<?xml version="1.0" encoding="utf-8"?>
<svg version="1.1" id="_x35_f5a5f46-7b66-4620-90cd-cdb1e07ac6e5"
	 xmlns="http://www.w3.org/2000/svg" xmlns:xlink="http://www.w3.org/1999/xlink" x="0px" y="0px" viewBox="0 0 40.85 40.85"
	 style="enable-background:new 0 0 40.85 40.85; fill: #333;" xml:space="preserve">
<title>microphone</title>
<path id="_x36_313c855-da3a-49c4-80ec-7bcb1ddce88e" d="M26.36,10.73c0.01-0.15,0.02-0.3,0.02-0.45c0-3.29-2.67-5.96-5.96-5.96
	c-3.29,0-5.96,2.67-5.96,5.96c0,0.15,0.01,0.3,0.02,0.46c-0.35,0.09-0.57,0.43-0.52,0.79c0.06,0.34,0.35,0.6,0.7,0.59
	c0.03,0,0.06,0,0.08-0.01c0.31,0.95,0.86,1.81,1.59,2.5l1.06,16.84c0.02,0.29,0.22,0.55,0.5,0.63c0.6,0.18,1.22,0.29,1.85,0.34
	c0.01,1,0.36,1.97,1,2.75c0.67,0.82,1.66,1.32,2.73,1.35h0.03c0.39,0.01,0.71-0.3,0.72-0.7s-0.3-0.71-0.7-0.72l0,0
	c-0.66-0.03-1.28-0.34-1.69-0.85c-0.42-0.52-0.66-1.17-0.68-1.84c0.61-0.05,1.21-0.16,1.79-0.34c0.28-0.09,0.48-0.34,0.5-0.63
	l1.06-16.84c0.73-0.69,1.28-1.55,1.59-2.51c0.38,0.04,0.73-0.23,0.78-0.61C26.93,11.15,26.7,10.82,26.36,10.73z M22.06,30.86
	c-1.07,0.27-2.2,0.27-3.27,0l-0.96-15.22c1.64,0.8,3.55,0.8,5.19,0L22.06,30.86z M20.42,14.82c-1.87,0-3.54-1.15-4.22-2.89
	c2.81-0.21,5.63-0.21,8.43,0.02C23.95,13.68,22.28,14.82,20.42,14.82L20.42,14.82z M24.94,10.56c-2.21-0.18-4.42-0.24-6.63-0.17
	c0.2-1.28,1.3-2.22,2.59-2.22c0.39,0.01,0.72-0.29,0.74-0.68c0.01-0.39-0.29-0.72-0.68-0.74c-0.02,0-0.04,0-0.05,0
	c-2.1,0.01-3.84,1.62-4.02,3.71c-0.33,0.02-0.66,0.05-0.97,0.08c0-0.09-0.03-0.17-0.03-0.26c0-2.51,2.03-4.54,4.54-4.54
	c2.51,0,4.54,2.03,4.54,4.54C24.96,10.38,24.94,10.46,24.94,10.56L24.94,10.56z"/>
</svg>
