<?xml version="1.0" encoding="utf-8"?>
<svg version="1.1" id="_x38_635f7db-8487-45f3-b278-99f23921b33f"
	 xmlns="http://www.w3.org/2000/svg" xmlns:xlink="http://www.w3.org/1999/xlink" x="0px" y="0px" viewBox="0 0 40.85 40.85"
	 style="enable-background:new 0 0 40.85 40.85; fill: #333;" xml:space="preserve">
<title>mouse</title>
<path id="_x30_baae96c-58be-4c8e-af40-af6641782c65" d="M19.78,31.3c-2.85-0.5-5.04-2.81-5.36-5.69c-0.02-0.39-0.35-0.69-0.74-0.68
	s-0.69,0.35-0.68,0.74c0,0.01,0,0.02,0,0.04c0.37,3.56,3.09,6.43,6.62,7c0.03,0,0.05,0,0.08,0c0.39-0.01,0.7-0.34,0.68-0.73
	C20.37,31.64,20.12,31.35,19.78,31.3z M20.42,5.17C14.7,5.18,10.06,9.82,10.06,15.54v9.76c0,5.73,4.64,10.37,10.37,10.37
	s10.37-4.64,10.37-10.37l0,0v-9.76C30.79,9.82,26.15,5.18,20.42,5.17z M29.38,25.31c0.1,4.94-3.82,9.03-8.76,9.14
	c-4.94,0.1-9.03-3.82-9.14-8.76c0-0.13,0-0.25,0-0.38v-9.76c0.01-4.94,4.01-8.95,8.95-8.95l0,0c4.94,0.01,8.95,4.01,8.95,8.95
	L29.38,25.31L29.38,25.31z M21.17,16.19c0.98-0.32,1.64-1.23,1.64-2.25v-3.29c0-1.03-0.67-1.94-1.64-2.25V8.03
	c0.01-0.39-0.29-0.72-0.68-0.74c-0.39-0.01-0.72,0.29-0.74,0.68c0,0.02,0,0.04,0,0.05v0.34c-1.01,0.3-1.7,1.22-1.7,2.27v3.29
	c0,1.05,0.69,1.97,1.7,2.27v0.98c-2.26-0.03-4.51-0.42-6.65-1.15c-0.36-0.15-0.78,0.03-0.92,0.39c-0.15,0.36,0.03,0.78,0.39,0.92
	c0.01,0,0.02,0.01,0.04,0.01c5.04,1.68,10.48,1.69,15.53,0.04c0.37-0.12,0.57-0.52,0.45-0.9c-0.12-0.37-0.52-0.57-0.9-0.45
	c-0.01,0-0.02,0.01-0.04,0.01c-2.09,0.7-4.28,1.08-6.48,1.11L21.17,16.19L21.17,16.19z M20.43,14.9c-0.53,0-0.97-0.43-0.97-0.97
	v-3.29c-0.02-0.53,0.4-0.98,0.93-1c0.53-0.02,0.98,0.4,1,0.93c0,0.02,0,0.04,0,0.06v3.29C21.38,14.46,20.96,14.89,20.43,14.9
	L20.43,14.9z"/>
</svg>
