<?xml version="1.0" encoding="utf-8"?>
<svg version="1.1" id="_x37_414c6b5-fb90-487f-be32-36e5b3257005"
	 xmlns="http://www.w3.org/2000/svg" xmlns:xlink="http://www.w3.org/1999/xlink" x="0px" y="0px" viewBox="0 0 40.85 40.85"
	 style="enable-background:new 0 0 40.85 40.85; fill: #333;" xml:space="preserve">
<title>mute</title>
<path id="_x33_7297c24-5cd9-4579-a9bc-b9cb094e5cc0" d="M16.91,24.37c0.29,0.26,0.74,0.24,1-0.05c0.24-0.27,0.24-0.68,0-0.95
	l-2.94-2.94l2.94-2.94c0.29-0.26,0.31-0.71,0.05-1c-0.26-0.29-0.71-0.31-1-0.05c-0.02,0.02-0.03,0.03-0.05,0.05l-2.94,2.94
	l-2.94-2.94c-0.26-0.29-0.71-0.31-1-0.05c-0.29,0.26-0.31,0.71-0.05,1c0.02,0.02,0.03,0.03,0.05,0.05l2.94,2.94l-2.94,2.94
	c-0.29,0.26-0.31,0.71-0.05,1c0.26,0.29,0.71,0.31,1,0.05c0.02-0.02,0.03-0.03,0.05-0.05l2.94-2.94L16.91,24.37z M29.78,15.23
	c-0.5-0.4-1.45-0.45-3.36-0.18l-7.59-8.02C18.8,7,18.77,6.98,18.74,6.97c-0.33-0.35-0.79-0.55-1.27-0.57c-2.75,0-3.7,6.43-3.98,9.2
	c-0.04,0.39,0.24,0.74,0.63,0.78c0.38,0.04,0.73-0.23,0.77-0.62c0-0.01,0-0.01,0-0.02c0.6-5.93,2.01-7.92,2.57-7.92
	c0.11,0.01,0.21,0.06,0.29,0.13C17.77,7.96,17.78,7.98,17.8,8l0.32,0.34c0.96,1.4,2.14,5.55,2.14,12.08c0,6.56-1.19,10.72-2.15,12.1
	l-0.28,0.29c-0.01,0.02-0.03,0.04-0.04,0.07c-0.09,0.09-0.2,0.14-0.32,0.15c-0.63,0-2.03-2.37-2.58-8.07
	c-0.04-0.39-0.38-0.67-0.77-0.64s-0.67,0.38-0.64,0.77c0.27,2.81,1.21,9.35,3.99,9.35c0.5-0.02,0.97-0.24,1.31-0.6
	c0.03-0.02,0.06-0.04,0.09-0.06l7.56-8c1.91,0.27,2.86,0.22,3.36-0.18c1.2-0.95,1.26-4.49,1.26-5.19S30.97,16.19,29.78,15.23z
	 M28.93,24.48c-0.83,0.14-1.67,0.1-2.48-0.11c-0.13-0.03-0.26-0.04-0.39-0.03c-0.16,0.02-0.31,0.1-0.42,0.22l-4.97,5.26
	c1.35-6.19,1.35-12.59,0-18.78l4.97,5.25c0.1,0.11,0.24,0.19,0.39,0.21c0.15,0.02,0.29,0.01,0.44-0.02
	c0.79-0.19,1.62-0.23,2.42-0.13c0.24,0.21,0.72,1.68,0.72,4.08S29.14,24.29,28.93,24.48L28.93,24.48z"/>
</svg>
