<?xml version="1.0" encoding="utf-8"?>
<svg version="1.1" id="f205c99d-e4b0-477d-a575-4e109b60e4bf"
	 xmlns="http://www.w3.org/2000/svg" xmlns:xlink="http://www.w3.org/1999/xlink" x="0px" y="0px" viewBox="0 0 40.85 40.85"
	 style="enable-background:new 0 0 40.85 40.85; fill: #333;" xml:space="preserve">
<title>note</title>
<path id="b6cb46e3-cec7-470b-a292-c03f4cdb5933" d="M16.56,17.01c0.01-0.39-0.29-0.72-0.68-0.74s-0.72,0.29-0.74,0.68
	c0,0.02,0,0.04,0,0.05v9.95c-0.64-0.51-1.43-0.79-2.25-0.79c-2.03-0.01-3.67,1.63-3.68,3.65c-0.01,2.03,1.63,3.67,3.65,3.68
	c1.96,0.01,3.58-1.53,3.68-3.49c0.01-0.03,0.01-0.06,0.02-0.08V17.01z M15.14,29.84c-0.01,1.24-1.02,2.25-2.26,2.24
	c-1.24-0.01-2.25-1.02-2.24-2.26c0.01-1.24,1.02-2.25,2.26-2.24c1.24,0.01,2.24,1.01,2.24,2.24V29.84z M15.11,12.03
	c0.05,0,0.1-0.01,0.14-0.02l15.81-3.26c0.38-0.08,0.63-0.45,0.55-0.84c-0.08-0.38-0.45-0.63-0.84-0.55l0,0l-15.81,3.26
	c-0.38,0.08-0.63,0.46-0.55,0.84C14.48,11.79,14.77,12.03,15.11,12.03L15.11,12.03z M30.77,10.61l-15.81,3.26
	c-0.38,0.09-0.62,0.47-0.53,0.85c0.07,0.32,0.35,0.54,0.68,0.55c0.05,0,0.1-0.01,0.14-0.02l15.81-3.26
	c0.39-0.06,0.65-0.42,0.59-0.81s-0.42-0.65-0.81-0.59C30.82,10.6,30.8,10.6,30.77,10.61L30.77,10.61z M31.33,14.05
	c0-0.39-0.32-0.71-0.71-0.71s-0.71,0.32-0.71,0.71v9.95c-0.64-0.51-1.43-0.79-2.25-0.79c-2.03-0.01-3.67,1.63-3.68,3.65
	c-0.01,2.03,1.63,3.67,3.65,3.68c1.96,0.01,3.58-1.53,3.68-3.49c0.01-0.03,0.01-0.06,0.02-0.08V14.05L31.33,14.05z M29.91,26.88
	c-0.01,1.24-1.02,2.25-2.26,2.24c-1.24-0.01-2.25-1.02-2.24-2.26s1.02-2.25,2.26-2.24c1.24,0.01,2.24,1.01,2.24,2.24V26.88z"/>
</svg>
