<?xml version="1.0" encoding="utf-8"?>
<svg version="1.1" id="_x31_0c824e8-214e-4a63-b65c-2ee2b101d77b"
	 xmlns="http://www.w3.org/2000/svg" xmlns:xlink="http://www.w3.org/1999/xlink" x="0px" y="0px" viewBox="0 0 40.85 40.85"
	 style="enable-background:new 0 0 40.85 40.85; fill: #333;" xml:space="preserve">
<title>paper-airplane</title>
<path id="_x38_bcf28b5-6749-408f-9f07-7556ed4ea883" d="M34.99,7.86c0-0.06,0-0.12-0.02-0.18c-0.01-0.03-0.02-0.06-0.03-0.08
	c-0.02-0.05-0.05-0.1-0.08-0.15c-0.01-0.02-0.01-0.04-0.03-0.05s-0.02-0.01-0.03-0.02s-0.02-0.03-0.03-0.04
	c-0.06-0.04-0.12-0.08-0.18-0.12c-0.15-0.07-0.32-0.08-0.48-0.05c-0.06,0.02-0.11,0.04-0.17,0.06L6.23,21.87
	c-0.35,0.18-0.48,0.61-0.29,0.96c0.07,0.14,0.2,0.25,0.34,0.32l5.22,2.29l3.74,7.88c0.01,0.01,0.02,0.02,0.02,0.03
	c0.01,0.02,0.03,0.04,0.04,0.06c0.04,0.05,0.08,0.1,0.13,0.14c0.01,0.01,0.02,0.02,0.03,0.03s0.02,0.01,0.02,0.01
	c0.04,0.03,0.09,0.05,0.13,0.07c0.02,0.01,0.04,0.02,0.06,0.03c0.07,0.02,0.14,0.03,0.21,0.03c0.04,0,0.09,0,0.13-0.01
	c0.05-0.01,0.09-0.03,0.13-0.05c0.02-0.01,0.04-0.01,0.06-0.02c0.09-0.05,0.16-0.11,0.22-0.19c0.01-0.01,0.01-0.01,0.02-0.02
	l3.27-4.4l3.63,1.86c0.35,0.18,0.77,0.04,0.95-0.31c0-0.01,0.01-0.01,0.01-0.02L34.92,8.17l0,0l0.01-0.02
	c0.03-0.07,0.05-0.15,0.06-0.23C35,7.9,34.99,7.88,34.99,7.86z M16.74,30.65l0.2-3.04l1.49,0.76L16.74,30.65z M23.33,29.29
	l-6.7-3.43c-0.35-0.18-0.78-0.04-0.95,0.31c-0.04,0.09-0.07,0.18-0.08,0.28l-0.25,3.8l-2.68-5.66c-0.07-0.15-0.2-0.28-0.36-0.35
	l-4.12-1.8l20.39-10.77L14.92,23c-0.29,0.26-0.32,0.71-0.07,1c0.25,0.28,0.68,0.32,0.97,0.09l16.46-13.65L23.33,29.29z"/>
</svg>
