<?xml version="1.0" encoding="utf-8"?>
<svg version="1.1" id="_x39_1d0309a-9796-4ada-9b76-0db70d8a7c6d"
	 xmlns="http://www.w3.org/2000/svg" xmlns:xlink="http://www.w3.org/1999/xlink" x="0px" y="0px" viewBox="0 0 40.85 40.85"
	 style="enable-background:new 0 0 40.85 40.85; fill: #333;" xml:space="preserve">
<title>play</title>
<path id="e4e38718-a487-459b-9937-1fc0774b5587" d="M24.35,21.11l-5.31,3.16c-0.34,0.19-0.46,0.63-0.26,0.97
	c0.19,0.34,0.63,0.46,0.97,0.26c0.01,0,0.01-0.01,0.02-0.01l5.31-3.16c0.33-0.21,0.44-0.64,0.23-0.98
	C25.11,21.03,24.69,20.93,24.35,21.11z M30.05,18.54L16.5,10.72c-0.63-0.39-1.43-0.4-2.07-0.02c-0.66,0.48-1.02,1.26-0.95,2.07
	v15.63c-0.02,0.74,0.37,1.44,1.02,1.8c0.27,0.14,0.58,0.21,0.88,0.21c0.49-0.01,0.97-0.15,1.38-0.42l13.54-7.82
	c0.65-0.35,1.06-1.04,1.05-1.78C31.28,19.59,30.78,18.89,30.05,18.54L30.05,18.54z M29.57,20.97l-13.53,7.81
	c-0.25,0.19-0.57,0.25-0.88,0.17c-0.17-0.14-0.26-0.36-0.26-0.58V12.74c-0.04-0.31,0.07-0.62,0.29-0.85
	c0.06-0.04,0.13-0.05,0.2-0.05c0.15,0.01,0.3,0.05,0.43,0.12l13.53,7.81c0.29,0.12,0.51,0.37,0.59,0.67
	C29.9,20.67,29.77,20.86,29.57,20.97L29.57,20.97z"/>
</svg>
