<?xml version="1.0" encoding="utf-8"?>
<svg version="1.1" id="_x34_f9dcfd5-5b8e-42af-9a7e-c5b5fb664450"
	 xmlns="http://www.w3.org/2000/svg" xmlns:xlink="http://www.w3.org/1999/xlink" x="0px" y="0px" viewBox="0 0 40.85 40.85"
	 style="enable-background:new 0 0 40.85 40.85; fill: #333;" xml:space="preserve">
<title>plug</title>
<path id="_x38_bf938cf-6b25-4387-80a6-81261beef449" d="M29.01,15.07c-0.1-0.38-0.49-0.6-0.87-0.5c0,0,0,0,0,0
	c-2.54,0.55-5.13,0.8-7.73,0.75c-2.64,0.06-5.28-0.2-7.85-0.78c-0.37-0.12-0.77,0.08-0.89,0.45s0.08,0.77,0.45,0.89
	c0.02,0.01,0.04,0.01,0.05,0.02c2.7,0.62,5.47,0.9,8.24,0.84c2.72,0.05,5.44-0.21,8.09-0.79C28.89,15.84,29.11,15.45,29.01,15.07
	C29.01,15.07,29.01,15.07,29.01,15.07z M24.76,14.46c0.39,0,0.71-0.32,0.71-0.71v-8.2c0-0.39-0.32-0.71-0.71-0.71
	c-0.39,0-0.71,0.32-0.71,0.71v8.2C24.05,14.15,24.37,14.46,24.76,14.46L24.76,14.46z M16.09,14.46c0.39,0,0.71-0.32,0.71-0.71
	c0,0,0,0,0,0v-8.2c0-0.39-0.32-0.71-0.71-0.71c-0.39,0-0.71,0.32-0.71,0.71v8.2C15.38,14.15,15.7,14.46,16.09,14.46L16.09,14.46z
	 M17.95,24.3c0,1.33,1.07,2.4,2.4,2.4c1.33,0,2.4-1.07,2.4-2.4c0-1.33-1.07-2.4-2.4-2.4l0,0C19.03,21.9,17.95,22.97,17.95,24.3
	L17.95,24.3z M21.33,24.3c0,0.54-0.44,0.98-0.98,0.98c-0.54,0-0.98-0.44-0.98-0.98c0-0.54,0.44-0.98,0.98-0.98
	C20.89,23.32,21.33,23.76,21.33,24.3L21.33,24.3z M26.89,12.25c-0.38-0.07-0.76,0.18-0.83,0.56c-0.07,0.38,0.18,0.76,0.56,0.83
	c0.02,0,0.05,0.01,0.07,0.01c2.44,0.34,3.39,0.79,3.61,0.98c-0.08,1.99-2.19,2.5-2.85,2.61c-0.34,0.06-0.59,0.35-0.59,0.7v5.7
	c0,3.56-2.89,6.45-6.45,6.45s-6.45-2.89-6.45-6.45v-5.7c0-0.35-0.25-0.64-0.59-0.7c-0.78-0.13-2.77-0.86-2.85-2.61
	c1.1-0.57,2.31-0.9,3.55-0.97c0.38-0.08,0.62-0.46,0.54-0.84c-0.08-0.34-0.39-0.58-0.74-0.56c-4.23,0.6-4.77,1.52-4.77,2.26
	c0,2.23,1.89,3.52,3.44,3.98v5.14c0.01,4.13,3.21,7.55,7.33,7.84c0.72,2.44,2.82,4.21,5.34,4.52h0.06c0.39,0,0.71-0.33,0.7-0.72
	c0-0.36-0.28-0.66-0.64-0.7c-1.81-0.21-3.34-1.43-3.95-3.15c3.93-0.49,6.89-3.83,6.89-7.8v-5.13c1.95-0.34,3.39-2.01,3.44-3.99
	C31.73,13.78,31.18,12.85,26.89,12.25L26.89,12.25z M18.18,13.31c1.56-0.06,3.14-0.05,4.58,0.01h0.03c0.39-0.01,0.7-0.34,0.69-0.73
	c-0.01-0.36-0.3-0.66-0.66-0.69c-1.48-0.06-3.1-0.07-4.7-0.01c-0.39,0.01-0.7,0.34-0.68,0.73c0,0,0,0,0,0
	C17.47,13.01,17.8,13.31,18.18,13.31L18.18,13.31z"/>
</svg>
