<?xml version="1.0" encoding="utf-8"?>
<svg version="1.1" id="_x33_9e43307-a63d-4df8-a96d-87cb791e4f1d"
	 xmlns="http://www.w3.org/2000/svg" xmlns:xlink="http://www.w3.org/1999/xlink" x="0px" y="0px" viewBox="0 0 40.85 40.85"
	 style="enable-background:new 0 0 40.85 40.85; fill: #333;" xml:space="preserve">
<title>popcorn</title>
<path id="d5231b20-c015-438a-a902-afa77f92397a" d="M11.05,14.86c0.39,0,0.71-0.32,0.71-0.71c0-1.4,1.14-2.54,2.54-2.54
	c0.4,0,0.79,0.09,1.14,0.27c0.35,0.18,0.78,0.04,0.95-0.31c0.02-0.04,0.03-0.07,0.05-0.11c0.56-1.8,2.22-3.02,4.1-3.01
	c1.78,0.01,3.37,1.1,4.02,2.77c0.13,0.33,0.48,0.52,0.83,0.44c1.89-0.46,3.79,0.7,4.25,2.59c0.02,0.09,0.04,0.18,0.05,0.27
	c0.05,0.34,0.35,0.6,0.7,0.6c0.04,0,0.07,0,0.11-0.01c0.39-0.06,0.65-0.42,0.59-0.81c0,0,0,0,0,0c-0.42-2.61-2.82-4.42-5.44-4.12
	c-0.98-1.92-2.95-3.13-5.1-3.14c-2.23-0.01-4.25,1.28-5.18,3.3c-2.11-0.58-4.29,0.66-4.87,2.77c-0.09,0.34-0.14,0.69-0.14,1.05
	C10.35,14.54,10.66,14.85,11.05,14.86z M33.81,15.32c-0.11-0.59-0.6-1.02-1.2-1.07c-0.37-0.12-0.76,0.09-0.88,0.46
	c-0.09,0.27,0,0.57,0.22,0.75c-3.82,0.57-7.68,0.81-11.53,0.72c-3.78,0.08-7.57-0.15-11.31-0.67c0.08-0.02,0.14-0.03,0.23-0.05
	c0.38-0.07,0.64-0.44,0.57-0.82c-0.07-0.38-0.44-0.64-0.82-0.57c-1.04,0.19-2.05,0.44-2.05,1.26c0,0.07,0.01,0.14,0.03,0.2
	c-0.02,0.05-0.03,0.1-0.03,0.16c-0.01,0.21,0.07,0.41,0.23,0.54L11,31.91c-0.03,0.19,0,0.39,0.09,0.56
	c0.65,1.23,6.74,1.36,9.33,1.36s8.68-0.13,9.33-1.36c0.09-0.17,0.12-0.37,0.09-0.56l3.74-15.69c0.16-0.13,0.25-0.33,0.23-0.54
	c0-0.05-0.01-0.1-0.03-0.14C33.8,15.46,33.81,15.39,33.81,15.32z M28.42,31.75c-1.19,0.42-6.07,0.65-8,0.65s-6.81-0.23-8-0.65
	L8.88,16.86c1.73,0.4,5.06,0.72,11.54,0.72s9.82-0.33,11.54-0.72L28.42,31.75z M13.68,18.14c-0.39,0.06-0.65,0.41-0.6,0.8
	l1.74,11.94c0.05,0.35,0.35,0.61,0.7,0.61c0.03,0,0.07,0,0.1-0.01c0.39-0.06,0.65-0.41,0.6-0.8l-1.74-11.94
	C14.42,18.35,14.06,18.08,13.68,18.14L13.68,18.14z M25.3,31.48c0.03,0,0.07,0.01,0.1,0.01c0.35,0,0.65-0.26,0.7-0.61l1.74-11.94
	c0.08-0.38-0.16-0.76-0.54-0.84c-0.38-0.08-0.76,0.16-0.84,0.54c-0.01,0.03-0.01,0.07-0.01,0.1L24.7,30.68
	C24.65,31.06,24.92,31.42,25.3,31.48z M19.71,18.99v12.12c0,0.39,0.32,0.71,0.71,0.71c0.39,0,0.71-0.32,0.71-0.71V18.99
	c0-0.39-0.32-0.71-0.71-0.71C20.03,18.28,19.72,18.6,19.71,18.99z"/>
</svg>
