<?xml version="1.0" encoding="utf-8"?>
<svg version="1.1" id="_x36_b4a97cc-5634-4332-824f-520d5da1b94d"
	 xmlns="http://www.w3.org/2000/svg" xmlns:xlink="http://www.w3.org/1999/xlink" x="0px" y="0px" viewBox="0 0 40.85 40.85"
	 style="enable-background:new 0 0 40.85 40.85; fill: #333;" xml:space="preserve">
<title>pump</title>
<path id="_x39_bdca5b6-c908-4bb7-9117-f237fa1bd7d5" d="M14.79,7.61h4.99v6.73c0,0.39,0.32,0.71,0.71,0.71
	c0.39,0,0.71-0.32,0.71-0.71V7.61h4.87c0.69,0,1.04-0.72,1.04-2.13s-0.35-2.13-1.04-2.13H14.79c-0.69,0-1.04,0.72-1.04,2.13
	S14.1,7.61,14.79,7.61z M15.22,4.77h10.42c0.07,0.47,0.07,0.95,0,1.42H15.22C15.15,5.73,15.15,5.25,15.22,4.77L15.22,4.77z
	 M27.89,32.2c-0.39-0.07-0.75,0.2-0.82,0.58s0.2,0.75,0.58,0.82c1.45,0.24,2.13,0.86,2.13,1.19c0,0.51-1.31,1.29-3.28,1.29H14.34
	c-1.97,0-3.28-0.77-3.28-1.29c0-0.32,0.59-0.88,1.91-1.15c0.39-0.07,0.64-0.44,0.58-0.82c-0.07-0.39-0.44-0.64-0.82-0.58
	c-0.01,0-0.03,0.01-0.04,0.01c-1.88,0.39-3.04,1.36-3.04,2.54c0,1.54,2.02,2.7,4.7,2.7h12.16c2.68,0,4.7-1.16,4.7-2.7
	C31.2,33.56,29.9,32.54,27.89,32.2L27.89,32.2z M18.33,14.32c-0.06-0.39-0.42-0.65-0.81-0.59c-1.9,0.3-2.79,0.83-2.79,1.67v17.77
	c0,1.74,4.36,1.88,5.69,1.88s5.69-0.14,5.69-1.88V15.4c0-1.07-1.51-1.45-2.64-1.64c-0.39-0.07-0.75,0.19-0.82,0.58
	s0.19,0.75,0.58,0.82c0.35,0.06,0.7,0.14,1.04,0.25c-2.53,0.61-5.18,0.61-7.71,0c0.38-0.12,0.77-0.21,1.17-0.27
	C18.13,15.07,18.39,14.71,18.33,14.32C18.33,14.32,18.33,14.32,18.33,14.32L18.33,14.32z M20.42,17.27
	c1.44,0.03,2.88-0.15,4.27-0.53V33c-2.79,0.85-5.76,0.85-8.55,0V16.74C17.54,17.12,18.98,17.3,20.42,17.27L20.42,17.27z"/>
</svg>
