<?xml version="1.0" encoding="utf-8"?>
<svg version="1.1" id="c33ca1a0-d0d6-47aa-a7a5-715fd0202aec"
	 xmlns="http://www.w3.org/2000/svg" xmlns:xlink="http://www.w3.org/1999/xlink" x="0px" y="0px" viewBox="0 0 40.85 40.85"
	 style="enable-background:new 0 0 40.85 40.85; fill: #333;" xml:space="preserve">
<title>rec</title>
<path id="_x33_e109db5-7204-402e-b090-9f8b927a4001" d="M17.59,13.87c-2.77,0.88-4.66,3.46-4.65,6.37c0,0.39,0.32,0.71,0.71,0.71
	c0.39,0,0.71-0.32,0.71-0.71c-0.01-2.29,1.48-4.33,3.66-5.02c0.37-0.12,0.58-0.52,0.46-0.89C18.36,13.96,17.96,13.75,17.59,13.87z
	 M20.43,10.11c-5.69,0-10.31,4.62-10.31,10.31c0,5.69,4.62,10.31,10.31,10.31c5.69,0,10.31-4.62,10.31-10.31
	C30.73,14.73,26.12,10.12,20.43,10.11L20.43,10.11z M20.43,29.31c-4.91,0-8.89-3.98-8.89-8.89s3.98-8.89,8.89-8.89
	c4.91,0,8.89,3.98,8.89,8.89c0,0,0,0,0,0C29.32,25.33,25.34,29.32,20.43,29.31L20.43,29.31z"/>
</svg>
