<?xml version="1.0" encoding="utf-8"?>
<svg version="1.1" id="b577f2da-0deb-444d-8c14-55facc25adb3"
	 xmlns="http://www.w3.org/2000/svg" xmlns:xlink="http://www.w3.org/1999/xlink" x="0px" y="0px" viewBox="0 0 40.85 40.85"
	 style="enable-background:new 0 0 40.85 40.85; fill: #333;" xml:space="preserve">
<title>shark</title>
<path id="_x32_279079d-616c-4167-b8a9-04b9433e6fdb" d="M39.37,13.26c0.19-0.34,0.07-0.77-0.27-0.97c-0.15-0.08-0.32-0.11-0.48-0.08
	c-2.45,0.46-5.81,3.41-7.11,6.11c-2.96-1.06-6.02-1.82-9.13-2.27c-0.82-2.44-0.6-4.44-0.1-8.99c0.04-0.39-0.24-0.74-0.63-0.78
	c-0.12-0.01-0.25,0.01-0.36,0.06c-3.8,1.87-6.7,5.16-8.08,9.16c-3.02,0.17-8.09,0.9-11.5,3.72c-0.24,0.21-0.36,0.52-0.33,0.83
	c0.06,1.1,1.72,3.75,3.92,5.5c0.02,0.02,0.03,0.03,0.05,0.05c0.02,0.01,0.04,0.02,0.06,0.03c0.2,0.15,0.4,0.32,0.61,0.45
	c2.15,1.43,4.6,2.33,7.17,2.64c1.22,3.24,5.02,5.5,8.17,5.84c0.02,0,0.05,0,0.08,0c0.39,0,0.71-0.32,0.71-0.71
	c0-0.17-0.06-0.33-0.17-0.46c-1.58-1.87-2.33-3.19-2.56-4.55c2.57-0.04,5.08-0.79,7.25-2.18c0.97,0.83,2.17,1.33,3.44,1.43
	c0.39,0,0.71-0.32,0.7-0.71c0-0.16-0.06-0.32-0.16-0.45l-0.11-0.13c-0.5-0.5-0.87-1.1-1.09-1.77c1.02-0.82,1.74-1.5,2.33-2.06
	c0.23-0.22,0.45-0.42,0.65-0.61c1.51,1.46,3.43,2.43,5.5,2.78c0.38,0.07,0.76-0.18,0.83-0.56c0.04-0.22-0.02-0.44-0.17-0.61
	c-0.34-0.39-0.66-0.73-0.95-1.05c-0.79-0.79-1.5-1.67-2.1-2.62c0.63-1.52,1.4-2.99,2.28-4.38C38.26,15.19,38.77,14.31,39.37,13.26z
	 M36.6,15.23c-1,1.55-1.84,3.2-2.5,4.92c-0.07,0.19-0.05,0.4,0.05,0.57c0.46,0.82,1.01,1.59,1.65,2.28
	c-1.07-0.52-2.03-1.22-2.85-2.09c-0.25-0.25-0.65-0.27-0.93-0.05c-0.39,0.31-0.78,0.67-1.22,1.09c-0.83,0.8-1.69,1.56-2.6,2.27
	c-0.23,0.18-0.33,0.47-0.25,0.75c0.1,0.4,0.24,0.79,0.41,1.16c-0.39-0.2-0.73-0.47-1.01-0.8c-0.22-0.27-0.6-0.34-0.91-0.17
	l-0.36,0.21c-2,1.31-4.32,2.02-6.71,2.05c0.01-0.18,0.03-0.37,0.06-0.55c0.08-0.38-0.17-0.76-0.55-0.83
	c-0.38-0.08-0.76,0.17-0.83,0.56l0,0c-0.09,0.47-0.11,0.95-0.08,1.42c-0.02,0.05-0.02,0.11-0.03,0.16c0.09,1.65,0.69,3.24,1.71,4.54
	c-2.3-0.81-4.6-2.6-5.25-4.86c-0.08-0.29-0.34-0.49-0.64-0.51c-2.48-0.21-4.87-1.06-6.95-2.44c-0.02-0.01-0.04-0.03-0.06-0.04
	l1.08-1.54l1.7,1.73c0.16,0.16,0.38,0.24,0.6,0.21c0.22-0.03,0.42-0.16,0.52-0.36l0.85-1.52l0.46,0.31
	c0.32,0.22,0.77,0.13,0.98-0.19s0.13-0.77-0.19-0.98l-1.1-0.74c-0.33-0.22-0.77-0.13-0.99,0.19c-0.01,0.02-0.02,0.03-0.03,0.05
	l-0.76,1.37l-1.63-1.67c-0.27-0.28-0.72-0.29-1-0.01c-0.03,0.03-0.06,0.06-0.09,0.1l-1.52,2.17c-1.2-1.06-2.15-2.37-2.8-3.83
	c3.29-2.57,8.24-3.14,10.93-3.25c0.3-0.01,0.56-0.21,0.65-0.5c1.06-3.39,3.3-6.29,6.32-8.17c-0.43,3.98-0.53,6.04,0.45,8.7
	c0.09,0.24,0.3,0.41,0.55,0.45c3.39,0.46,6.71,1.3,9.91,2.51c0.36,0.14,0.77-0.04,0.92-0.4c0-0.01,0.01-0.01,0.01-0.02
	c0.97-2.12,2.55-3.9,4.54-5.11L36.6,15.23z"/>
</svg>
