<?xml version="1.0" encoding="utf-8"?>
<svg version="1.1" id="_x32_6dd5855-5636-4af6-945e-42cc009e9464"
	 xmlns="http://www.w3.org/2000/svg" xmlns:xlink="http://www.w3.org/1999/xlink" x="0px" y="0px" viewBox="0 0 40.85 40.85"
	 style="enable-background:new 0 0 40.85 40.85; fill: #333;" xml:space="preserve">
<title>shovel</title>
<path id="e2f9e78a-dfad-43e2-b41f-65c5b1321c9c" d="M17.82,19L6.74,7.92c-0.33-0.33-0.33-0.86,0-1.19c0.33-0.32,0.86-0.32,1.19,0
	L19,17.81c0.29,0.26,0.74,0.24,1-0.05c0.24-0.27,0.24-0.68,0-0.95L8.93,5.73C8.02,4.87,6.6,4.9,5.73,5.8
	c-0.83,0.87-0.83,2.25,0,3.12L16.81,20c0.28,0.28,0.73,0.28,1,0C18.09,19.73,18.09,19.28,17.82,19L17.82,19z M30.59,19.57
	c-0.3-0.26-0.74-0.22-1,0.07c-0.23,0.27-0.23,0.66,0,0.93c5.08,5.08,5.04,9.5,4.57,12.38c-0.01,0.68-0.57,1.22-1.25,1.22
	c-2.87,0.46-7.27,0.49-12.34-4.58c-0.29-0.26-0.74-0.24-1,0.05c-0.24,0.27-0.24,0.68,0,0.95c4.21,4.21,8.04,5.19,11.03,5.19
	c0.85,0,1.7-0.08,2.54-0.22c1.29-0.09,2.31-1.11,2.42-2.39C36.08,29.99,36.13,25.11,30.59,19.57L30.59,19.57z M25.75,27.66
	c0.24,0.13,0.5,0.2,0.77,0.21c0.36,0,0.7-0.14,0.95-0.39c0.44-0.46,0.52-1.16,0.19-1.71c-0.85-1.48-1.85-2.88-2.99-4.15
	c1.25-0.97,2.62-1.79,4.07-2.43c0.35-0.17,0.5-0.6,0.33-0.95c-0.16-0.34-0.56-0.49-0.91-0.34c-1.58,0.7-3.07,1.6-4.43,2.67
	c-0.54-0.58-1.11-1.18-1.74-1.81c-0.21-0.2-0.51-0.27-0.79-0.2c-1.18,0.5-2.12,1.42-2.65,2.58c-0.08,0.19-0.07,0.4,0.02,0.59
	c0.03,0.11,0.09,0.21,0.17,0.29c0.63,0.63,1.23,1.21,1.82,1.74c-1.06,1.36-1.96,2.84-2.66,4.42c-0.17,0.35-0.02,0.78,0.33,0.95
	c0.35,0.17,0.78,0.02,0.95-0.33c0.01-0.01,0.01-0.02,0.02-0.04c0.65-1.44,1.46-2.8,2.43-4.05C22.89,25.82,24.27,26.81,25.75,27.66
	L25.75,27.66z M20.07,21.3c0.32-0.5,0.74-0.92,1.24-1.25c1.97,1.87,3.68,4,5.08,6.33C24.06,24.98,21.94,23.27,20.07,21.3L20.07,21.3
	z"/>
</svg>
