<?xml version="1.0" encoding="utf-8"?>
<svg version="1.1" id="_x37_c4251cf-8cc0-4e7b-9fa0-0eeb8d80dd36"
	 xmlns="http://www.w3.org/2000/svg" xmlns:xlink="http://www.w3.org/1999/xlink" x="0px" y="0px" viewBox="0 0 40.85 40.85"
	 style="enable-background:new 0 0 40.85 40.85; fill: #333;" xml:space="preserve">
<title>speedometer</title>
<path id="d87ad07d-2640-4933-80f4-8c7bec5a0faa" d="M29.52,24.95l-6.58-1.12c-0.17-1.39-1.43-2.38-2.82-2.22
	c-1.39,0.17-2.38,1.43-2.22,2.82c0.17,1.39,1.43,2.38,2.82,2.22c0.86-0.1,1.61-0.64,1.98-1.42l6.58,1.12
	c0.04,0.01,0.08,0.01,0.12,0.01c0.39,0,0.71-0.31,0.72-0.7C30.12,25.3,29.87,25,29.52,24.95z M20.43,25.24
	c-0.62,0-1.12-0.5-1.12-1.12c0-0.62,0.5-1.12,1.12-1.12c0.62,0,1.12,0.5,1.12,1.12C21.55,24.74,21.05,25.24,20.43,25.24
	C20.43,25.24,20.42,25.24,20.43,25.24L20.43,25.24z M20.43,10.41c-7.57,0.01-13.7,6.14-13.71,13.71c-0.01,2.05,0.45,4.07,1.34,5.92
	c0.17,0.35,0.59,0.5,0.94,0.33c0.35-0.17,0.5-0.59,0.33-0.94C6.41,23.3,9,15.96,15.13,13.03c6.12-2.93,13.46-0.34,16.39,5.79
	c1.57,3.29,1.6,7.1,0.09,10.41c-0.16,0.36-0.01,0.78,0.35,0.94s0.78,0.01,0.94-0.35c3.15-6.89,0.12-15.03-6.77-18.17
	C24.33,10.83,22.39,10.41,20.43,10.41L20.43,10.41z"/>
</svg>
