<?xml version="1.0" encoding="utf-8"?>
<svg version="1.1" id="_x35_1e30a3d-7d95-4173-b62e-07246a6cbf97"
	 xmlns="http://www.w3.org/2000/svg" xmlns:xlink="http://www.w3.org/1999/xlink" x="0px" y="0px" viewBox="0 0 40.85 40.85"
	 style="enable-background:new 0 0 40.85 40.85; fill: #333;" xml:space="preserve">
<title>stop</title>
<path id="_x38_539ef99-6048-45b2-ae9d-ea71818e337f" d="M17.64,13.04c-2.18,0.1-4.05,1.6-4.61,3.71c-0.1,0.38,0.12,0.77,0.5,0.87
	c0.06,0.02,0.12,0.02,0.18,0.02c0.32,0,0.6-0.22,0.68-0.52c0.4-1.51,1.74-2.59,3.31-2.66c0.39-0.02,0.69-0.35,0.67-0.74
	C18.35,13.33,18.03,13.03,17.64,13.04z M27.25,10.65H13.59c-1.66,0.06-2.95,1.45-2.89,3.11v13.32c-0.06,1.66,1.24,3.05,2.89,3.11
	h13.66c1.66-0.06,2.95-1.45,2.89-3.11V13.77C30.2,12.11,28.91,10.72,27.25,10.65L27.25,10.65z M28.73,27.08
	c0.04,0.87-0.61,1.62-1.48,1.69H13.59c-0.87-0.07-1.52-0.82-1.48-1.69V13.77c-0.05-0.87,0.6-1.63,1.48-1.7h13.66
	c0.87,0.08,1.52,0.82,1.48,1.7V27.08z"/>
</svg>
