<?xml version="1.0" encoding="utf-8"?>
<svg version="1.1" id="a4539b9c-bf08-48f1-a0ca-b92ec2a4d09c"
	 xmlns="http://www.w3.org/2000/svg" xmlns:xlink="http://www.w3.org/1999/xlink" x="0px" y="0px" viewBox="0 0 40.85 40.85"
	 style="enable-background:new 0 0 40.85 40.85; fill: #333;" xml:space="preserve">
<title>thermometer</title>
<path id="de3f9cf6-4e93-427b-8b6a-4e17ec33cd05" d="M15.18,10.57h1.39c0.39-0.01,0.7-0.34,0.68-0.74c-0.01-0.37-0.31-0.67-0.68-0.68
	h-1.39c-0.39,0.01-0.7,0.34-0.68,0.74C14.52,10.26,14.81,10.55,15.18,10.57z M17.28,21.64c0-0.39-0.32-0.71-0.71-0.71c0,0,0,0,0,0
	h-1.39c-0.39-0.01-0.72,0.29-0.74,0.68s0.29,0.72,0.68,0.74c0.02,0,0.04,0,0.05,0h1.39C16.96,22.35,17.28,22.03,17.28,21.64
	L17.28,21.64z M15.18,16.46h1.39c0.39-0.01,0.7-0.34,0.68-0.74c-0.01-0.37-0.31-0.67-0.68-0.68h-1.39c-0.39,0-0.71,0.32-0.71,0.71
	C14.48,16.14,14.79,16.46,15.18,16.46L15.18,16.46z M24.28,14.16h1.39c0.39,0,0.71-0.32,0.71-0.71c0-0.39-0.32-0.71-0.71-0.71l0,0
	h-1.39c-0.37-0.13-0.79,0.11-0.92,0.48c-0.13,0.37,0.07,0.77,0.43,0.9C23.95,14.18,24.11,14.18,24.28,14.16L24.28,14.16z
	 M25.66,18.64h-1.39c-0.39,0-0.71,0.32-0.71,0.71c0,0.39,0.32,0.71,0.71,0.71h1.39c0.39,0,0.71-0.32,0.71-0.71
	C26.37,18.95,26.05,18.64,25.66,18.64L25.66,18.64z M25.66,24.53h-1.39c-0.39,0-0.71,0.32-0.71,0.71c0,0.39,0.32,0.71,0.71,0.71
	h1.39c0.39,0,0.71-0.32,0.71-0.71S26.05,24.53,25.66,24.53L25.66,24.53z M20.07,28.44c-0.71,0.21-1.32,0.69-1.68,1.34
	c-0.21,0.33-0.1,0.77,0.23,0.98c0.33,0.21,0.77,0.1,0.98-0.23c0-0.01,0.01-0.01,0.01-0.02c0.18-0.32,0.47-0.57,0.82-0.69
	c0.38-0.1,0.61-0.49,0.51-0.87S20.45,28.34,20.07,28.44L20.07,28.44L20.07,28.44z M22.52,26.9V8.37c0-1.16-0.94-2.09-2.09-2.09
	s-2.09,0.94-2.09,2.09V26.9c-1.96,1.16-2.61,3.68-1.45,5.64c1.16,1.96,3.68,2.61,5.64,1.45s2.61-3.68,1.45-5.64
	C23.62,27.76,23.12,27.26,22.52,26.9L22.52,26.9z M20.42,33.15c-1.49,0-2.7-1.2-2.71-2.69c0-1.07,0.63-2.04,1.61-2.48
	c0.26-0.11,0.42-0.37,0.42-0.65V8.37c0-0.37,0.3-0.68,0.68-0.68c0.37,0,0.68,0.3,0.68,0.68v18.96c0,0.28,0.16,0.53,0.42,0.65
	c1.36,0.6,1.98,2.2,1.38,3.56C22.46,32.52,21.49,33.15,20.42,33.15L20.42,33.15z"/>
</svg>
