<?xml version="1.0" encoding="utf-8"?>
<svg version="1.1" id="_x34_0771f05-71a7-45dd-a9c6-2dd2b6c6ac2e"
	 xmlns="http://www.w3.org/2000/svg" xmlns:xlink="http://www.w3.org/1999/xlink" x="0px" y="0px" viewBox="0 0 40.85 40.85"
	 style="enable-background:new 0 0 40.85 40.85; fill: #333;" xml:space="preserve">
<title>traffic-light</title>
<path id="_x36_99b1f0c-dbab-4a67-b5f7-c91d1d9f3546" d="M20.37,2.21c-2.17-0.01-4.25,0.84-5.78,2.37c-0.27,0.28-0.26,0.73,0.03,1
	c0.28,0.26,0.71,0.26,0.99-0.01c1.27-1.26,2.99-1.96,4.77-1.95c3.51,0,6.36,2.56,6.36,5.71v22.18c0,3.15-2.85,5.71-6.36,5.71
	c-1.82,0.02-3.57-0.71-4.84-2.01c-0.27-0.28-0.72-0.29-1-0.02s-0.29,0.72-0.02,1l0,0c1.54,1.58,3.66,2.47,5.86,2.45
	c4.29,0,7.78-3.2,7.78-7.13V9.33C28.15,5.4,24.66,2.21,20.37,2.21z M18.97,34.3c2.45,0.02,4.46-1.96,4.47-4.42s-1.96-4.46-4.42-4.47
	c-0.01,0-0.01,0-0.02,0c-1.59-0.21-3.2,0.05-4.64,0.75c-1.19,0.63-1.83,1.96-1.58,3.28c0.15,0.66,0.74,1.12,1.41,1.12h0.4
	C14.94,32.71,16.79,34.29,18.97,34.3L18.97,34.3z M21.9,29.14h-0.13c-0.41,0-0.62-0.33-1.03-1.14c-0.15-0.31-0.32-0.6-0.51-0.89
	C21.07,27.5,21.69,28.25,21.9,29.14L21.9,29.14z M17.77,27.07c0.89,0.05,1.24,0.64,1.72,1.57c0.43,0.85,0.98,1.91,2.29,1.91h0.13
	c-0.39,1.62-2.03,2.62-3.65,2.23c-1.62-0.39-2.62-2.03-2.23-3.65C16.25,28.21,16.89,27.45,17.77,27.07L17.77,27.07z M14.2,29.15
	c-0.07-0.11-0.1-0.24-0.07-0.37c0.08-0.61,0.45-1.14,1-1.43c0.1-0.06,0.2-0.11,0.31-0.16c-0.43,0.57-0.72,1.24-0.83,1.95L14.2,29.15
	z M14.2,21.42h0.4c0.39,2.42,2.67,4.06,5.09,3.67s4.06-2.67,3.67-5.09c-0.35-2.13-2.18-3.71-4.34-3.73h-0.02
	c-1.59-0.21-3.2,0.05-4.64,0.75c-1.19,0.63-1.83,1.96-1.58,3.29C12.94,20.95,13.52,21.42,14.2,21.42L14.2,21.42z M21.91,20h-0.13
	c-0.41,0-0.61-0.33-1.03-1.14c-0.15-0.31-0.32-0.6-0.51-0.89C21.08,18.36,21.69,19.11,21.91,20L21.91,20z M17.77,17.93
	c0.89,0.05,1.24,0.64,1.72,1.57c0.43,0.85,0.98,1.91,2.29,1.91h0.13c-0.39,1.62-2.03,2.62-3.65,2.23c-1.62-0.39-2.62-2.03-2.23-3.65
	C16.25,19.07,16.9,18.31,17.77,17.93L17.77,17.93z M15.12,18.21c0.1-0.06,0.2-0.11,0.31-0.16C15,18.62,14.71,19.3,14.6,20h-0.4
	c-0.07-0.11-0.1-0.24-0.07-0.37C14.2,19.03,14.57,18.5,15.12,18.21L15.12,18.21z M14.19,12.28h0.4c0.39,2.42,2.67,4.06,5.09,3.67
	c2.42-0.39,4.06-2.67,3.67-5.09c-0.35-2.13-2.17-3.7-4.33-3.73c-0.01,0-0.01,0-0.02,0c-1.59-0.21-3.2,0.05-4.64,0.75
	c-1.19,0.63-1.83,1.96-1.58,3.28C12.94,11.81,13.52,12.28,14.19,12.28z M21.9,10.86h-0.13c-0.41,0-0.61-0.33-1.03-1.14
	c-0.15-0.31-0.32-0.6-0.51-0.89C21.07,9.22,21.69,9.96,21.9,10.86L21.9,10.86z M17.77,8.79c0.89,0.05,1.24,0.64,1.72,1.57
	c0.43,0.85,0.98,1.91,2.29,1.91h0.13c-0.39,1.62-2.03,2.62-3.65,2.23c-1.62-0.39-2.62-2.03-2.23-3.65
	C16.25,9.93,16.89,9.17,17.77,8.79L17.77,8.79z M15.12,9.07c0.1-0.06,0.2-0.11,0.31-0.16c-0.43,0.57-0.72,1.24-0.83,1.95h-0.4
	c-0.07-0.11-0.1-0.24-0.07-0.37C14.2,9.89,14.57,9.36,15.12,9.07L15.12,9.07z"/>
</svg>
