<?xml version="1.0" encoding="utf-8"?>
<svg version="1.1" id="_x30_fa202c4-f0b4-48bd-9297-2b4b428e9aee"
	 xmlns="http://www.w3.org/2000/svg" xmlns:xlink="http://www.w3.org/1999/xlink" x="0px" y="0px" viewBox="0 0 40.85 40.85"
	 style="enable-background:new 0 0 40.85 40.85; fill: #333;" xml:space="preserve">
<title>trash</title>
<path id="_x37_96a324f-ac05-444c-a289-f12a1e56f358" d="M9.86,11.03c0.39,0,0.7-0.31,0.71-0.69c0,0,0,0,0-0.01
	c0.06-0.19,1.02-1,4.59-1.51c0.38-0.08,0.62-0.46,0.54-0.84c-0.08-0.34-0.39-0.58-0.74-0.56c-3.85,0.55-5.81,1.52-5.81,2.9
	C9.16,10.71,9.47,11.02,9.86,11.03z M9.62,13.1c3.46,0.97,7.04,1.46,10.63,1.46c3.68-0.01,7.35-0.5,10.9-1.46
	c0.38-0.09,0.62-0.47,0.53-0.85c-0.09-0.38-0.47-0.62-0.85-0.53c-0.01,0-0.02,0.01-0.04,0.01c-6.8,1.88-13.98,1.88-20.78,0
	c-0.38-0.1-0.77,0.12-0.87,0.49C9.03,12.61,9.25,13,9.62,13.1L9.62,13.1z M25.61,8.81c3.58,0.51,4.54,1.32,4.6,1.49
	c0,0.39,0.32,0.71,0.71,0.71c0.39,0,0.71-0.32,0.71-0.71c0-1.38-1.96-2.35-5.82-2.9c-0.39-0.05-0.75,0.22-0.8,0.61
	S25.22,8.76,25.61,8.81L25.61,8.81L25.61,8.81z M17.42,8.6c0.39,0,0.71-0.32,0.71-0.71l0,0c0.14-1.25,1.27-2.14,2.52-2
	c1.05,0.12,1.88,0.95,2,2c0,0.39,0.32,0.71,0.71,0.71c0.39,0,0.71-0.32,0.71-0.71l0,0c-0.14-2.03-1.9-3.56-3.93-3.42
	c-1.83,0.13-3.29,1.59-3.42,3.42C16.71,8.28,17.03,8.6,17.42,8.6C17.42,8.6,17.43,8.6,17.42,8.6L17.42,8.6z M24.31,16.13v16.45
	c0,0.39,0.32,0.71,0.71,0.71c0.39,0,0.71-0.32,0.71-0.71l0,0V16.13c0.03-0.39-0.26-0.73-0.65-0.77c-0.39-0.03-0.73,0.26-0.77,0.65
	C24.31,16.05,24.31,16.09,24.31,16.13L24.31,16.13z M29.72,14.58c-0.41,0.02-0.74,0.33-0.78,0.73v17.43c0,1.08-3.43,2.23-8.54,2.23
	c-2.08,0.03-4.15-0.21-6.17-0.71c-1.47-0.42-2.38-1-2.38-1.52V15.31c0-0.1-0.02-0.21-0.07-0.3c-0.11-0.26-0.37-0.44-0.65-0.44
	c-2.41,0-4.23,1.08-4.23,2.52c0,0.98,0.84,1.82,2.25,2.24c0.38,0.1,0.77-0.13,0.86-0.51c0.09-0.36-0.11-0.73-0.46-0.85
	c-0.54-0.06-1.01-0.4-1.24-0.89c0-0.32,0.74-0.91,2.12-1.07v16.7c0,1.28,1.15,2.25,3.41,2.89c2.14,0.54,4.35,0.8,6.56,0.76
	c4.6,0,9.96-0.96,9.96-3.65V16.03c1.41,0.14,2.18,0.74,2.18,1.07c-0.23,0.49-0.7,0.83-1.24,0.89c-0.38,0.1-0.61,0.49-0.51,0.86
	c0.1,0.38,0.49,0.61,0.86,0.51c0.02,0,0.03-0.01,0.05-0.02c1.41-0.42,2.25-1.26,2.25-2.24C33.96,15.66,32.14,14.58,29.72,14.58
	L29.72,14.58z M19.68,16.4v16.45c0,0.39,0.32,0.71,0.71,0.71c0.39,0,0.71-0.32,0.71-0.71l0,0V16.4c0.03-0.39-0.27-0.73-0.66-0.75
	c-0.39-0.03-0.73,0.27-0.75,0.66C19.68,16.33,19.68,16.36,19.68,16.4L19.68,16.4z M15.05,16.13v16.45c0,0.39,0.32,0.71,0.71,0.71
	c0.39,0,0.71-0.32,0.71-0.71l0,0V16.13c0.03-0.39-0.27-0.73-0.66-0.75c-0.39-0.03-0.73,0.27-0.75,0.66
	C15.05,16.07,15.05,16.1,15.05,16.13L15.05,16.13z"/>
</svg>
