<?xml version="1.0" encoding="utf-8"?>
<svg version="1.1" id="d2424e0b-826d-4367-9777-03dc5a5bb609"
	 xmlns="http://www.w3.org/2000/svg" xmlns:xlink="http://www.w3.org/1999/xlink" x="0px" y="0px" viewBox="0 0 40.85 40.85"
	 style="enable-background:new 0 0 40.85 40.85; fill: #333;" xml:space="preserve">
<title>volume</title>
<path id="_x31_652d442-9090-4a89-9ea6-ae9916f8c0ed" d="M14.32,20.42c-0.1,1.59,0.67,3.1,2,3.96c0.34,0.19,0.77,0.08,0.97-0.26
	c0.19-0.34,0.08-0.77-0.26-0.97c-0.02-0.01-0.03-0.02-0.05-0.02c-1.5-1.29-1.66-3.55-0.37-5.04c0.12-0.13,0.24-0.26,0.37-0.37
	c0.34-0.19,0.47-0.62,0.29-0.96c-0.18-0.34-0.6-0.47-0.94-0.3C14.99,17.32,14.22,18.83,14.32,20.42z M28.06,15.24
	c-0.5-0.4-1.45-0.45-3.36-0.18l-7.59-8.02C17.08,7,17.05,6.98,17.02,6.96c-0.33-0.35-0.79-0.55-1.27-0.57
	c-2.77,0-4.21,7.06-4.21,14.03s1.45,14.03,4.21,14.03c0.5-0.02,0.97-0.24,1.31-0.61c0.03-0.02,0.06-0.04,0.08-0.06l7.56-8
	c1.91,0.27,2.86,0.22,3.36-0.18c1.2-0.95,1.26-4.49,1.26-5.19S29.25,16.19,28.06,15.24L28.06,15.24z M16.39,32.53l-0.28,0.29
	c-0.01,0.02-0.03,0.04-0.04,0.07c-0.09,0.09-0.2,0.14-0.32,0.15c-0.95,0-2.79-4.45-2.79-12.61S14.8,7.81,15.75,7.81
	c0.11,0.01,0.21,0.06,0.29,0.13c0.01,0.02,0.02,0.04,0.04,0.06l0.32,0.34c0.96,1.4,2.14,5.55,2.14,12.08
	C18.54,26.99,17.35,31.15,16.39,32.53L16.39,32.53z M27.21,24.48c-0.83,0.14-1.67,0.1-2.48-0.11c-0.13-0.03-0.26-0.04-0.39-0.03
	c-0.16,0.02-0.31,0.1-0.42,0.22l-4.97,5.26c1.35-6.19,1.35-12.59,0-18.78l4.97,5.25c0.1,0.11,0.24,0.19,0.39,0.21
	c0.15,0.02,0.29,0.01,0.44-0.02c0.79-0.19,1.62-0.23,2.42-0.13c0.24,0.21,0.72,1.68,0.72,4.08S27.42,24.29,27.21,24.48L27.21,24.48z
	"/>
</svg>
