<?xml version="1.0" encoding="utf-8"?>
<svg version="1.1" id="_x30_aad6ed5-3c84-4522-883e-3790a03f2638"
	 xmlns="http://www.w3.org/2000/svg" xmlns:xlink="http://www.w3.org/1999/xlink" x="0px" y="0px" viewBox="0 0 40.85 40.85"
	 style="enable-background:new 0 0 40.85 40.85; fill: #333;" xml:space="preserve">
<title>whirligig</title>
<path id="_x38_ce4ca67-9e1f-4840-87a2-9a86e6f3cd7a" d="M20.43,9.4c1.93,0,3.32-0.8,3.32-1.91s-1.4-1.91-3.32-1.91
	s-3.32,0.8-3.32,1.91S18.5,9.4,20.43,9.4z M20.43,6.99c0.67-0.03,1.33,0.13,1.91,0.45c-0.54,0.42-1.23,0.62-1.91,0.54
	c-0.67,0.03-1.33-0.13-1.91-0.45C19.06,7.11,19.74,6.92,20.43,6.99L20.43,6.99z M27.9,15.09c-0.38-0.09-0.76,0.15-0.85,0.53
	c-0.09,0.38,0.15,0.76,0.53,0.85c0.01,0,0.02,0,0.02,0c5.87,1.24,9.66,3.86,9.66,6.66c0,2.35-2.68,4.48-6.72,5.84
	c-0.34,0.1-0.67,0.21-1.02,0.32c-5.84,1.59-11.99,1.62-17.84,0.09c-0.51-0.17-1.03-0.33-1.55-0.48c-3.95-1.36-6.54-3.47-6.54-5.78
	c0-2.76,3.71-5.36,9.46-6.61c0.38-0.1,0.61-0.48,0.51-0.86c-0.09-0.36-0.45-0.59-0.81-0.52c-6.52,1.43-10.58,4.5-10.58,8
	c0,2.92,2.82,5.45,7.22,7.04H9.4h0.01c0.72,0.26,1.46,0.5,2.26,0.7c2.98,0.98,5.79,2.42,8.33,4.25c0.26,0.19,0.62,0.19,0.87-0.02
	c2.68-1.91,5.64-3.39,8.78-4.37c0.62-0.17,1.21-0.36,1.78-0.57l0.03-0.01h0.01c4.4-1.59,7.21-4.12,7.21-7.04
	C38.69,19.58,34.55,16.5,27.9,15.09z M20.41,33.68c-0.98-0.69-2.01-1.32-3.07-1.88c1,0.08,2.03,0.13,3.08,0.13s2.09-0.05,3.09-0.13
	C22.43,32.34,21.39,32.97,20.41,33.68z M34.5,22.7c0.2,0.34,0.64,0.45,0.97,0.24c0.34-0.2,0.45-0.64,0.24-0.97
	c-0.01-0.01-0.02-0.03-0.03-0.04c-1.51-1.92-3.61-3.29-5.97-3.9c-0.37-0.13-0.77,0.07-0.9,0.45c-0.13,0.37,0.07,0.77,0.45,0.9
	c0.02,0.01,0.03,0.01,0.05,0.01C31.35,19.91,33.17,21.07,34.5,22.7z M20.43,21.33c2.38,0,5.43-0.83,6.4-2.38
	c0.36-0.54,0.41-1.22,0.12-1.8l-1.59-3.3c-0.11-0.23-0.21-0.44-0.3-0.64c-0.82-1.82-1.48-2.93-4.64-2.93s-3.82,1.11-4.64,2.93
	c-0.09,0.2-0.19,0.42-0.3,0.64l-1.59,3.3c-0.28,0.58-0.24,1.26,0.12,1.8C14.99,20.49,18.05,21.33,20.43,21.33z M15.18,17.76
	l1.59-3.3c0.11-0.24,0.21-0.46,0.31-0.67c0.69-1.52,0.95-2.09,3.35-2.09s2.66,0.57,3.35,2.09c0.1,0.21,0.2,0.44,0.31,0.67l1.59,3.3
	c0.07,0.14,0.05,0.31-0.04,0.43c-0.51,0.81-2.77,1.72-5.2,1.72s-4.69-0.91-5.2-1.72C15.13,18.07,15.11,17.9,15.18,17.76L15.18,17.76
	z M11.23,18.04c-2.36,0.61-4.46,1.98-5.97,3.9c-0.2,0.34-0.09,0.77,0.24,0.97c0.32,0.19,0.73,0.1,0.94-0.2
	c1.33-1.63,3.15-2.78,5.19-3.31c0.38-0.11,0.59-0.51,0.48-0.89S11.61,17.92,11.23,18.04L11.23,18.04L11.23,18.04z"/>
</svg>
